<svg width="40" height="40" viewBox="0 0 40 40" fill="none" xmlns="http://www.w3.org/2000/svg">
<path d="M19.9993 15.0004V21.667M19.9993 28.3337H20.016M17.6915 6.48659L3.98333 30.1643C3.22298 31.4777 2.84281 32.1343 2.899 32.6732C2.94801 33.1433 3.1943 33.5705 3.57656 33.8483C4.01481 34.167 4.77359 34.167 6.29113 34.167H33.7073C35.225 34.167 35.9837 34.167 36.422 33.8483C36.8042 33.5705 37.0505 33.1433 37.0995 32.6732C37.1557 32.1343 36.7755 31.4777 36.0152 30.1643L22.307 6.48659C21.5495 5.17799 21.1707 4.52369 20.6765 4.30392C20.2453 4.11224 19.7532 4.11224 19.3222 4.30392C18.8278 4.52369 18.449 5.17799 17.6915 6.48659Z" stroke="#FF9F05" stroke-width="3" stroke-linecap="round" stroke-linejoin="round"/>
</svg>
