<svg width="26" height="18" viewBox="0 0 26 18" fill="none" xmlns="http://www.w3.org/2000/svg">
<path d="M26 16.4284C26 17.2772 25.3119 17.9654 24.4631 17.9654H1.53689C0.688086 17.9654 0 17.2772 0 16.4284V1.57159C0 0.722782 0.688086 0.0346451 1.53689 0.0346451H24.4631C25.312 0.0346451 26 0.722782 26 1.57159V16.4284Z" fill="#306FC5"/>
<path d="M3.78809 7.20989H4.56494L4.17661 6.22118L3.78809 7.20989Z" fill="white"/>
<path d="M7.91895 10.5289V10.988H9.2255V11.4825H7.91895V12.0123H9.36667L10.0375 11.2705L9.40201 10.5289H7.91895Z" fill="white"/>
<path d="M18.124 6.22118L17.7002 7.20989H18.5124L18.124 6.22118Z" fill="white"/>
<path d="M11.6974 12.2945V10.2818L10.7793 11.2706L11.6974 12.2945Z" fill="white"/>
<path d="M13.4279 10.8468C13.3925 10.635 13.2512 10.5289 13.0392 10.5289H12.2979V11.1645H13.0748C13.2866 11.1645 13.4279 11.0586 13.4279 10.8468Z" fill="white"/>
<path d="M15.8988 11.094C15.9695 11.0586 16.0049 10.9526 16.0049 10.8469C16.0402 10.7057 15.9695 10.635 15.8988 10.5997C15.8284 10.5643 15.7223 10.5643 15.6165 10.5643H14.9102V11.1294H15.6165C15.7222 11.1294 15.8283 11.1294 15.8988 11.094Z" fill="white"/>
<path d="M20.9838 5.30304V5.72676L20.7721 5.30304H19.1126V5.72676L18.9007 5.30304H16.6408C16.2524 5.30304 15.9345 5.37373 15.6522 5.51495V5.30304H14.0633V5.33838V5.51495C13.8867 5.37378 13.6749 5.30304 13.3924 5.30304H7.70743L7.31885 6.18582L6.93052 5.30304H5.65942H5.12972V5.72676L4.95315 5.30304H4.91781H3.3995L2.69318 6.96257L1.88114 8.76338L1.86621 8.79877H1.88114H3.682H3.70454L3.71734 8.76338L3.9293 8.23383H4.38831L4.60017 8.79877H6.64798V8.76338V8.37505L6.82465 8.79872H7.84855L8.02501 8.37505V8.76338V8.79877H8.83716H12.8979H12.9332V7.88065H13.004C13.0745 7.88065 13.0745 7.88065 13.0745 7.98663V8.76343H15.6169V8.55157C15.8288 8.65765 16.1464 8.76343 16.5701 8.76343H17.6296L17.8414 8.19859H18.3356L18.5475 8.76343H20.5954V8.4104V8.23388L20.9133 8.76343H20.9838H21.0192H22.5729V5.30304H20.9839H20.9838ZM9.01382 8.26922H8.66064H8.44883V8.05752V6.32709L8.41349 6.40809V6.40713L7.59205 8.26922H7.56605H7.3772H7.07164L6.22426 6.32709V8.26922H5.02379L4.77664 7.73957H3.57596L3.32876 8.26922H2.70806L3.75263 5.79745H4.63531L5.62397 8.16319V5.79745H5.83578H6.55946L6.57612 5.83284H6.57734L7.02284 6.80246L7.34277 7.52893L7.35409 7.49232L8.06025 5.7975H9.01377V8.26922H9.01382ZM11.4503 6.32709H10.0732V6.78611H11.415V7.28041H10.0732V7.77492H11.4503V8.30441H9.47294V5.7975H11.4503V6.32709ZM13.9688 7.2376C13.9697 7.23842 13.9709 7.23897 13.972 7.23973C13.9854 7.25385 13.9968 7.26802 14.0065 7.28158C14.0742 7.37024 14.1289 7.50212 14.1316 7.6955C14.1318 7.69885 14.132 7.70215 14.1322 7.7055C14.1322 7.70743 14.1325 7.70911 14.1325 7.71109C14.1325 7.7122 14.1324 7.71307 14.1324 7.71413C14.1332 7.73358 14.1337 7.75344 14.1337 7.77492V8.26927H13.6042V7.98668C13.6042 7.84545 13.6042 7.63354 13.4981 7.49232C13.4648 7.45896 13.431 7.43697 13.3942 7.42133C13.3413 7.38705 13.241 7.38649 13.0745 7.38649H12.4388V8.26927H11.8386V5.7975H13.1805C13.4981 5.7975 13.7101 5.7975 13.8867 5.90343C14.0597 6.00732 14.1642 6.17963 14.1682 6.45247C14.16 6.82825 13.9188 7.03443 13.7454 7.10395C13.7454 7.10395 13.8632 7.12766 13.9688 7.2376ZM15.1578 8.26922H14.5575V5.79745H15.1578V8.26922ZM22.0434 8.26922H21.2664L20.1365 6.39768V7.95133L20.1328 7.94768V8.27075H19.5363V8.26927H18.936L18.7241 7.73963H17.4881L17.2763 8.30447H16.6054C16.3231 8.30447 15.9698 8.23393 15.758 8.02207C15.5462 7.81021 15.4403 7.52772 15.4403 7.06875C15.4403 6.71567 15.5109 6.36234 15.758 6.07994C15.9344 5.86793 16.2524 5.7975 16.6407 5.7975H17.2058V6.32709H16.6407C16.4289 6.32709 16.3231 6.36229 16.1816 6.46842C16.0759 6.5743 16.0052 6.78611 16.0052 7.03326C16.0052 7.31581 16.0405 7.49232 16.1816 7.63354C16.2878 7.73963 16.4289 7.77497 16.6054 7.77497H16.8526L17.6646 5.83294H18.0179H18.5474L19.5363 8.19869V8.07803V7.28051V7.20998V5.83299H20.4189L21.4427 7.56311V5.83299H22.0433V8.26932H22.0434V8.26922Z" fill="white"/>
<path d="M13.4651 6.82694C13.4754 6.81592 13.4847 6.80343 13.4926 6.78911C13.5246 6.73848 13.5613 6.64728 13.5415 6.52281C13.5407 6.51139 13.5387 6.50083 13.5362 6.49062C13.5356 6.48777 13.5357 6.48529 13.5349 6.48244L13.5345 6.48249C13.517 6.42201 13.4721 6.38484 13.4274 6.36229C13.3566 6.3271 13.2507 6.3271 13.1448 6.3271H12.4385V6.89215H13.1448C13.2507 6.89215 13.3567 6.89215 13.4274 6.85675C13.438 6.85137 13.4474 6.84406 13.4565 6.83578L13.4566 6.83624C13.4566 6.83624 13.4603 6.83243 13.4651 6.82694Z" fill="white"/>
<path d="M24.1263 11.8003C24.1263 11.5532 24.0558 11.3059 23.9499 11.1294V9.54049H23.9482V9.43441C23.9482 9.43441 22.4682 9.43441 22.2479 9.43441C22.0278 9.43441 21.7605 9.64622 21.7605 9.64622V9.43441H20.1364C19.8891 9.43441 19.5715 9.5051 19.43 9.64622V9.43441H16.5347V9.54049V9.64617C16.323 9.46976 15.9343 9.43436 15.7578 9.43436H13.8511V9.54044V9.64612C13.6745 9.4697 13.2506 9.43431 13.0387 9.43431H10.9204L10.4259 9.96401L9.96685 9.43431H9.81903H9.57848H6.78906V9.54039V9.81933V13.0008H9.89637L10.4069 12.4901L10.8495 13.0008H10.8849H12.6754H12.7565H12.7919H12.827V12.6477V12.1887H13.0037C13.2506 12.1887 13.5686 12.1887 13.8157 12.0827V12.9653V13.0361H15.4047V12.9653V12.118H15.4751C15.5812 12.118 15.5812 12.118 15.5812 12.2239V12.9653V13.0361H20.3833C20.7013 13.0361 21.0189 12.9653 21.1954 12.8241V12.9653V13.0361H22.7139C23.0314 13.0361 23.3495 13.0008 23.5613 12.8595C23.8864 12.6645 24.0914 12.3192 24.1218 11.9074C24.1232 11.8952 24.125 11.883 24.1261 11.8708L24.1241 11.8688C24.1254 11.846 24.1263 11.8234 24.1263 11.8003ZM13.0037 11.5885H12.2974V11.6942V11.9061V12.118V12.5065H11.1367L10.4613 11.7296L10.4589 11.7322L10.4259 11.6942L9.64911 12.5065H7.3893V10.0348H9.68446L10.3115 10.7216L10.4433 10.8654L10.4612 10.8469L11.2028 10.0348H13.0742C13.4374 10.0348 13.8441 10.1245 13.9982 10.494C14.0168 10.5672 14.0275 10.6485 14.0275 10.741C14.0275 11.4471 13.5332 11.5885 13.0037 11.5885ZM16.5347 11.5531C16.6052 11.6588 16.6406 11.8003 16.6406 12.0122V12.5064H16.0404V12.1887C16.0404 12.0473 16.0404 11.8003 15.9343 11.6942C15.8639 11.5885 15.7224 11.5885 15.5107 11.5885H14.8752V12.5065H14.275V9.99946H15.6167C15.899 9.99946 16.1461 9.99946 16.323 10.1053C16.4994 10.2113 16.6406 10.3879 16.6406 10.6704C16.6406 11.0587 16.3935 11.2706 16.2169 11.3413C16.3935 11.4116 16.4994 11.4825 16.5347 11.5531ZM18.9712 10.5289H17.5939V10.988H18.9357V11.4824H17.5939V11.9768H18.9712V12.5064H16.9938V9.9994H18.9712V10.5289ZM20.4541 12.5065H19.3241V11.9769H20.4541C20.5598 11.9769 20.6306 11.9769 20.7014 11.9062C20.7367 11.8708 20.7718 11.8003 20.7718 11.7296C20.7718 11.6588 20.7367 11.5886 20.7014 11.5532C20.666 11.5179 20.5952 11.4825 20.4893 11.4825C19.9243 11.4472 19.2535 11.4825 19.2535 10.7058C19.2535 10.3526 19.4653 9.96416 20.101 9.96416H21.2661V10.5643H20.1716C20.0657 10.5643 19.995 10.5643 19.9243 10.5997C19.8539 10.6351 19.8539 10.7058 19.8539 10.7763C19.8539 10.8823 19.9243 10.9176 19.9949 10.9527C20.0657 10.9881 20.1363 10.9881 20.2068 10.9881H20.5246C20.8425 10.9881 21.0543 11.0587 21.1955 11.2C21.3015 11.306 21.3721 11.4825 21.3721 11.7296C21.3721 12.2591 21.0543 12.5065 20.4541 12.5065ZM23.4908 12.2591C23.3497 12.4005 23.1024 12.5065 22.7492 12.5065H21.6195V11.9769H22.7491C22.8551 11.9769 22.9259 11.9769 22.9964 11.9062C23.0316 11.8708 23.067 11.8003 23.067 11.7296C23.067 11.6588 23.0316 11.5886 22.9964 11.5532C22.9611 11.5179 22.8905 11.4825 22.7845 11.4825C22.2198 11.4472 21.5487 11.4825 21.5487 10.7058C21.5487 10.3702 21.7407 10.067 22.2142 9.97701C22.2708 9.96919 22.3307 9.96416 22.3962 9.96416H23.5615V10.5643H22.7845H22.5022H22.4668C22.3608 10.5643 22.2903 10.5643 22.2198 10.5997C22.1842 10.6351 22.1489 10.7058 22.1489 10.7763C22.1489 10.8823 22.1842 10.9176 22.2903 10.9527C22.3608 10.9881 22.4315 10.9881 22.5022 10.9881H22.5372H22.8198C22.9742 10.9881 23.0909 11.0071 23.1977 11.0446C23.2955 11.08 23.6192 11.2249 23.6917 11.6029C23.6979 11.6425 23.7026 11.6839 23.7026 11.7296C23.7026 11.9415 23.6319 12.118 23.4908 12.2591Z" fill="white"/>
</svg>
