<svg width="30" height="30" viewBox="0 0 30 30" fill="none" xmlns="http://www.w3.org/2000/svg">
<path d="M8.02388 22.296C7.39691 21.6985 6.89476 20.9795 6.54723 20.1816C6.1997 19.3837 6.01386 18.5233 6.00075 17.6512C5.98763 16.7792 6.14751 15.9134 6.4709 15.1051C6.79428 14.2969 7.27458 13.5627 7.88329 12.9462L14.3427 6.40045C14.7684 5.96 15.276 5.60946 15.8363 5.36909C16.3965 5.12871 16.9982 5.00329 17.6066 5.00006C18.2149 4.99684 18.8179 5.11588 19.3806 5.35029C19.9433 5.58471 20.4545 5.92985 20.8847 6.36576C21.315 6.80167 21.6556 7.31969 21.887 7.88986C22.1184 8.46003 22.236 9.07104 22.2329 9.68754C22.2298 10.304 22.1061 10.9138 21.869 11.4816C21.6319 12.0493 21.286 12.5638 20.8515 12.9953L14.3921 19.541C13.8634 20.0525 13.1605 20.3378 12.4296 20.3378C11.6986 20.3378 10.9958 20.0525 10.4671 19.541C9.94748 19.0128 9.65573 18.2975 9.65573 17.5518C9.65573 16.806 9.94748 16.0907 10.4671 15.5625L15.6298 10.3308C15.809 10.1554 16.0489 10.0584 16.298 10.0606C16.547 10.0628 16.7853 10.164 16.9614 10.3425C17.1375 10.521 17.2374 10.7624 17.2396 11.0148C17.2418 11.2672 17.146 11.5103 16.973 11.6919L11.8083 16.9237C11.6459 17.0903 11.5548 17.3151 11.5548 17.5493C11.5548 17.7836 11.6459 18.0084 11.8083 18.175C11.9751 18.3352 12.196 18.4244 12.4258 18.4244C12.6555 18.4244 12.8765 18.3352 13.0432 18.175L19.5026 11.6293C19.9971 11.1132 20.2713 10.4207 20.2661 9.7014C20.2609 8.98209 19.9766 8.29375 19.4746 7.78511C18.9727 7.27646 18.2934 6.98836 17.5836 6.98306C16.8738 6.97776 16.1904 7.25567 15.6811 7.75676L9.22172 14.3025C8.7926 14.7366 8.4539 15.2536 8.22572 15.8229C7.99754 16.3921 7.88453 17.002 7.89338 17.6164C7.90224 18.2308 8.0328 18.8371 8.2773 19.3994C8.52179 19.9616 8.87526 20.4684 9.31671 20.8896C10.2208 21.6974 11.3974 22.121 12.6017 22.072C13.8061 22.0231 14.9454 21.5054 15.7827 20.6268L23.3668 12.9414C23.4545 12.8494 23.5593 12.7761 23.6752 12.7256C23.7911 12.6752 23.9157 12.6486 24.0418 12.6475C24.168 12.6464 24.293 12.6708 24.4098 12.7192C24.5265 12.7676 24.6326 12.839 24.7218 12.9294C24.811 13.0198 24.8815 13.1273 24.9293 13.2456C24.977 13.3639 25.0011 13.4906 25 13.6185C24.9989 13.7463 24.9727 13.8726 24.9229 13.99C24.8731 14.1075 24.8007 14.2137 24.71 14.3025L17.1259 21.9879C15.8604 23.2724 14.1438 23.9959 12.3526 23.9998C10.7478 24.0136 9.19875 23.4039 8.02388 22.296Z" fill="#002F6C"/>
</svg>
