<svg width="25" height="26" viewBox="0 0 25 26" fill="none" xmlns="http://www.w3.org/2000/svg">
<path d="M12.5 25.9167C5.59644 25.9167 0 20.1337 0 13C0 5.86636 5.59644 0.083374 12.5 0.083374C19.4035 0.083374 25 5.86636 25 13C25 20.1337 19.4035 25.9167 12.5 25.9167ZM18.75 14.9375C18.75 13.8675 17.9105 13 16.875 13H8.125C7.08946 13 6.25 13.8675 6.25 14.9375V15.5834C6.25 18.1298 8.57439 20.75 12.5 20.75C16.4256 20.75 18.75 18.1298 18.75 15.5834V14.9375ZM15.9375 8.15629C15.9375 6.19453 14.3985 4.60421 12.5 4.60421C10.6015 4.60421 9.0625 6.19453 9.0625 8.15629C9.0625 10.118 10.6015 11.7084 12.5 11.7084C14.3985 11.7084 15.9375 10.118 15.9375 8.15629Z" fill="white"/>
</svg>
