<svg width="22" height="22" viewBox="0 0 22 22" fill="none" xmlns="http://www.w3.org/2000/svg">
<g clip-path="url(#clip0_587_1092)">
<path d="M10.9999 13.6034C13.4148 13.6034 15.3724 11.6458 15.3724 9.2309C15.3724 6.81603 13.4148 4.8584 10.9999 4.8584C8.58508 4.8584 6.62744 6.81603 6.62744 9.2309C6.62744 11.6458 8.58508 13.6034 10.9999 13.6034Z" stroke="#B0B1B3" stroke-width="2" stroke-miterlimit="10"/>
<path d="M14.0985 6.13257L7.90186 12.3201" stroke="#B0B1B3" stroke-width="2" stroke-miterlimit="10"/>
<path d="M1.375 4.85836V13.6034C1.375 14.5321 1.74392 15.4227 2.40061 16.0794C3.0573 16.7361 3.94797 17.105 4.87667 17.105H6.6275V19.7267L11.9167 17.105H17.1692C18.0979 17.105 18.9885 16.7361 19.6452 16.0794C20.3019 15.4227 20.6708 14.5321 20.6708 13.6034V4.85836C20.6708 3.92966 20.3019 3.03899 19.6452 2.3823C18.9885 1.72561 18.0979 1.35669 17.1692 1.35669H4.87667C3.94797 1.35669 3.0573 1.72561 2.40061 2.3823C1.74392 3.03899 1.375 3.92966 1.375 4.85836Z" stroke="#292D32" stroke-width="2" stroke-miterlimit="10"/>
</g>
<defs>
<clipPath id="clip0_587_1092">
<rect width="22" height="22" fill="white"/>
</clipPath>
</defs>
</svg>
