<svg width="14" height="14" viewBox="0 0 14 14" fill="none" xmlns="http://www.w3.org/2000/svg">
<g clip-path="url(#clip0_156_417)">
<path d="M5.38424 10.0962C5.38424 9.88084 5.19578 9.69238 4.98039 9.69238H0.941932C0.726547 9.69238 0.538086 9.88084 0.538086 10.0962V13.0578C0.538086 13.2732 0.726547 13.4616 0.941932 13.4616H4.98039C5.19578 13.4616 5.38424 13.2732 5.38424 13.0578V10.0962Z" fill="white"/>
<path d="M2.18114 5.92293H0.861905C0.592674 5.92293 0.458059 6.16523 0.619597 6.29985L2.77344 8.53446C2.88114 8.61523 3.04267 8.61523 3.15037 8.53446L5.30421 6.29985C5.46575 6.13831 5.33114 5.92293 5.0619 5.92293H3.79652C3.79652 4.57677 5.11575 3.23062 6.46191 3.23062V1.61523C4.03883 1.61523 2.18114 3.49985 2.18114 5.92293Z" fill="white"/>
<path d="M11.2535 5.46536C11.1458 5.38459 10.9842 5.38459 10.8765 5.46536L8.7227 7.69998C8.56116 7.86152 8.69578 8.0769 8.96501 8.0769H10.2573C10.2573 9.69229 9.15347 10.7692 7.53809 10.7692V12.3846C9.96116 12.3846 11.8727 10.5 11.8727 8.0769H13.1919C13.4612 8.0769 13.5958 7.83459 13.4342 7.69998L11.2535 5.46536Z" fill="white"/>
<path d="M13.4614 0.94242C13.4614 0.727036 13.2729 0.538574 13.0575 0.538574H9.01908C8.8037 0.538574 8.61523 0.727036 8.61523 0.94242V3.90396C8.61523 4.11934 8.8037 4.30781 9.01908 4.30781H13.0575C13.2729 4.30781 13.4614 4.11934 13.4614 3.90396V0.94242Z" fill="white"/>
</g>
<defs>
<clipPath id="clip0_156_417">
<rect width="14" height="14" fill="white"/>
</clipPath>
</defs>
</svg>
