<svg width="14" height="11" viewBox="0 0 14 11" fill="none" xmlns="http://www.w3.org/2000/svg">
<path d="M11.55 9.625H2.45C2.2575 9.625 2.1 9.77969 2.1 9.96875V10.6562C2.1 10.8453 2.2575 11 2.45 11H11.55C11.7425 11 11.9 10.8453 11.9 10.6562V9.96875C11.9 9.77969 11.7425 9.625 11.55 9.625ZM12.95 2.75C12.3703 2.75 11.9 3.21191 11.9 3.78125C11.9 3.93379 11.935 4.07559 11.9963 4.20664L10.4125 5.13906C10.0756 5.33672 9.64031 5.225 9.44562 4.88984L7.66281 1.82617C7.89687 1.63711 8.05 1.35352 8.05 1.03125C8.05 0.461914 7.57969 0 7 0C6.42031 0 5.95 0.461914 5.95 1.03125C5.95 1.35352 6.10313 1.63711 6.33719 1.82617L4.55437 4.88984C4.35969 5.225 3.92219 5.33672 3.5875 5.13906L2.00594 4.20664C2.065 4.07773 2.10219 3.93379 2.10219 3.78125C2.10219 3.21191 1.63187 2.75 1.05219 2.75C0.4725 2.75 0 3.21191 0 3.78125C0 4.35059 0.470313 4.8125 1.05 4.8125C1.10688 4.8125 1.16375 4.80391 1.21844 4.79531L2.8 9.625H11.2L12.7816 4.79531C12.8362 4.80391 12.8931 4.8125 12.95 4.8125C13.5297 4.8125 14 4.35059 14 3.78125C14 3.21191 13.5297 2.75 12.95 2.75Z" fill="#F5D199"/>
</svg>
