<svg width="13" height="13" viewBox="0 0 13 13" fill="none" xmlns="http://www.w3.org/2000/svg">
<path fill-rule="evenodd" clip-rule="evenodd" d="M6.5 11.3749C6.5 11.0758 6.7425 10.8333 7.04167 10.8333H11.375C11.6742 10.8333 11.9167 11.0758 11.9167 11.3749C11.9167 11.6741 11.6742 11.9166 11.375 11.9166H7.04167C6.7425 11.9166 6.5 11.6741 6.5 11.3749Z" fill="#323232"/>
<path fill-rule="evenodd" clip-rule="evenodd" d="M11.2525 4.38738C12.1245 3.51198 12.0875 2.36241 11.4364 1.65841C11.1188 1.31514 10.667 1.09587 10.1552 1.08378C9.64145 1.07165 9.10921 1.2681 8.61808 1.679C8.60551 1.68951 8.59343 1.70058 8.5819 1.71218L1.55716 8.76495C1.25381 9.06948 1.0835 9.48185 1.0835 9.91171V10.829C1.0835 11.4257 1.56665 11.9166 2.1689 11.9166H3.07826C3.51036 11.9166 3.92467 11.7445 4.2296 11.4383L11.2525 4.38738ZM9.32067 3.13777C9.10915 2.92623 8.76617 2.92623 8.55465 3.13777C8.34313 3.3493 8.34313 3.69226 8.55465 3.9038L9.09632 4.44547C9.30784 4.657 9.65082 4.657 9.86234 4.44547C10.0739 4.23393 10.0739 3.89097 9.86234 3.67943L9.32067 3.13777Z" fill="#323232"/>
</svg>
