<svg width="25" height="25" viewBox="0 0 25 25" fill="none" xmlns="http://www.w3.org/2000/svg">
<path d="M6.77425 22.4167C8.4757 23.399 10.6354 22.8202 14.9549 21.6628C19.2744 20.5054 21.434 19.9268 22.4164 18.2253C23.3987 16.5239 22.82 14.3642 21.6626 10.0447C20.5052 5.72525 19.9266 3.56552 18.2251 2.5832C16.5236 1.60087 14.3639 2.17957 10.0445 3.33696C5.72501 4.49436 3.56528 5.07306 2.58296 6.77449C1.60062 8.47594 2.17932 10.6356 3.33672 14.9551C4.49411 19.2746 5.07281 21.4343 6.77425 22.4167Z" fill="#A1A1A1"/>
<path d="M15.5184 11.6914C16.0742 11.5425 16.3435 10.746 16.1202 9.91249C15.8969 9.07895 15.2653 8.52394 14.7096 8.67283C14.1539 8.82173 13.8845 9.61816 14.1078 10.4517C14.3312 11.2852 14.9627 11.8402 15.5184 11.6914Z" fill="white"/>
<path d="M9.48128 13.309C10.037 13.1601 10.3064 12.3637 10.0831 11.5302C9.85971 10.6967 9.22817 10.1416 8.67247 10.2905C8.11678 10.4394 7.84735 11.2358 8.07071 12.0694C8.29405 12.9029 8.92559 13.4579 9.48128 13.309Z" fill="white"/>
<path d="M8.52656 16.4072C8.63145 15.9887 9.05578 15.7345 9.4743 15.8394C10.6517 16.1345 12.0038 16.1382 13.3764 15.7704C14.7491 15.4026 15.9183 14.7234 16.7904 13.8791C17.1004 13.579 17.595 13.587 17.8951 13.897C18.1952 14.207 18.1871 14.7016 17.8771 15.0017C17.5152 15.3521 17.1146 15.6765 16.6804 15.9691L16.845 16.3044C17.229 17.0868 16.8987 18.032 16.111 18.4049C15.3389 18.7705 14.4164 18.4481 14.04 17.6813L13.8356 17.2647L13.7809 17.2796C12.1607 17.7137 10.5386 17.7169 9.09442 17.3551C8.6759 17.2502 8.42165 16.8258 8.52656 16.4072Z" fill="white"/>
</svg>
