<svg width="19" height="19" viewBox="0 0 19 19" fill="none" xmlns="http://www.w3.org/2000/svg">
<path d="M19 9.55803C19 7.02309 17.9996 4.59196 16.2188 2.79949C14.438 1.00701 12.0228 4.08045e-06 9.50439 4.08045e-06C7.11332 -0.00221855 4.80944 0.903635 3.05294 2.53662C1.29644 4.16961 0.216637 6.4095 0.029229 8.80889C-0.158179 11.2083 0.560601 13.5905 2.04199 15.4797C3.52339 17.3689 5.65833 18.6261 8.02037 19V12.3203H5.6112V9.55803H8.02172V7.45254C8.02172 5.05757 9.43928 3.7331 11.6083 3.7331C12.6474 3.7331 13.734 3.92016 13.734 3.92016V6.2728H12.5362C11.356 6.2728 10.9898 7.01014 10.9898 7.76522V9.55803H13.6228L13.2023 12.3203H10.9884V19C13.2219 18.644 15.2559 17.4974 16.7246 15.7666C18.1932 14.0358 19.0001 11.8342 19 9.55803Z" fill="#1877F2"/>
</svg>
