<svg width="13" height="13" viewBox="0 0 13 13" fill="none" xmlns="http://www.w3.org/2000/svg">
<path d="M8.125 8.125L11.375 11.375M11.375 8.125L8.125 11.375M5.41667 11.375V7.9423C5.41667 7.80986 5.41667 7.74361 5.4017 7.68127C5.38843 7.62596 5.36655 7.57315 5.33685 7.52467C5.30335 7.47002 5.25651 7.42316 5.16283 7.32951L1.87884 4.04551C1.78516 3.95183 1.73832 3.90498 1.70482 3.85032C1.67512 3.80186 1.65324 3.74902 1.63997 3.69375C1.625 3.63141 1.625 3.56517 1.625 3.43268V2.49167C1.625 2.18831 1.625 2.03662 1.68404 1.92076C1.73597 1.81884 1.81884 1.73597 1.92076 1.68404C2.03662 1.625 2.18831 1.625 2.49167 1.625H10.5083C10.8117 1.625 10.9634 1.625 11.0792 1.68404C11.1812 1.73597 11.264 1.81884 11.316 1.92076C11.375 2.03662 11.375 2.18831 11.375 2.49167V3.43268C11.375 3.56517 11.375 3.63141 11.36 3.69375C11.3468 3.74902 11.3249 3.80186 11.2952 3.85032C11.2617 3.90498 11.2148 3.95183 11.1212 4.04551L9.20833 5.95833" stroke="black" stroke-linecap="round" stroke-linejoin="round"/>
</svg>
