<svg width="14" height="14" viewBox="0 0 14 14" fill="none" xmlns="http://www.w3.org/2000/svg">
<path d="M9.38488 5.87046C11.896 5.6713 13.4953 8.38746 12.1303 10.5114L13.8178 12.2177C14.3089 12.7321 13.7182 13.4912 13.1085 13.123L11.3214 11.3262C11.2301 11.382 11.1344 11.4541 11.0396 11.5019C8.79272 12.6402 6.28372 10.727 6.76372 8.24141C7.00538 6.98976 8.1191 5.97056 9.38467 5.87003L9.38488 5.87046ZM11.4926 8.84858C11.4926 7.83086 10.6749 7.00598 9.66644 7.00598C8.658 7.00598 7.84025 7.83108 7.84025 8.84858C7.84025 9.86609 8.658 10.6912 9.66644 10.6912C10.6749 10.6912 11.4926 9.86609 11.4926 8.84858Z" fill="white"/>
<path d="M5.96303 7.84524C5.88617 8.22691 5.81599 8.61237 5.83771 9.00437L3.28151 9.0069C1.6949 9.2069 1.0288 10.5148 1.15809 12.0293C1.1888 12.388 1.50232 12.7458 1.84738 12.8301C3.92902 12.8816 6.03322 12.8816 8.11486 12.8301C8.24102 12.8548 8.53929 12.5547 8.58378 12.5532C8.62305 12.5517 8.77887 12.6107 8.84132 12.6228C9.15233 12.6826 9.46732 12.7252 9.78501 12.7138C9.51201 13.4287 8.81646 13.9303 8.06285 14.0002L1.85866 13.999C0.837888 13.8685 0.0763332 13.0434 0.00991122 12.0076C-0.132123 9.78879 1.12217 8.00794 3.38218 7.8446L5.96262 7.84566L5.96303 7.84524Z" fill="white"/>
<path d="M4.66363 0.0117145C5.80346 -0.0822806 6.90778 0.404555 7.55842 1.35652C8.50713 2.74474 7.84437 4.77954 6.81984 5.93846C4.38291 8.6953 1.36551 4.76015 2.05104 2.13841C2.34638 1.00857 3.52172 0.10592 4.66363 0.0117145ZM4.80985 1.14977C3.82751 1.23744 3.05551 2.01448 3.07953 3.03073C3.10689 4.18649 4.4462 6.63479 5.78466 5.37913C6.5859 4.62738 7.31007 2.92114 6.56815 1.9344C6.16962 1.40436 5.46905 1.09118 4.80985 1.14998V1.14977Z" fill="white"/>
</svg>
