<svg width="16" height="17" viewBox="0 0 16 17" fill="none" xmlns="http://www.w3.org/2000/svg">
<mask id="mask0_292_2726" style="mask-type:luminance" maskUnits="userSpaceOnUse" x="0" y="0" width="16" height="17">
<path d="M15.9034 0.243652H0V16.2437H15.9034V0.243652Z" fill="white"/>
</mask>
<g mask="url(#mask0_292_2726)">
<path d="M15.9036 8.42734C15.9036 7.88351 15.8588 7.33676 15.7634 6.80176H8.11133V9.88241H12.4933C12.3115 10.876 11.7272 11.7549 10.8717 12.3134V14.3123H13.486C15.0212 12.9189 15.9036 10.8613 15.9036 8.42734Z" fill="#4285F4"/>
<path d="M8.11102 16.2436C10.299 16.2436 12.1443 15.5352 13.4886 14.3123L10.8744 12.3134C10.147 12.8014 9.20801 13.0777 8.11399 13.0777C5.99752 13.0777 4.20299 11.6696 3.5591 9.77661H0.861328V11.8372C2.23854 14.5387 5.04362 16.2436 8.11102 16.2436Z" fill="#34A853"/>
<path d="M3.55631 9.7766C3.21648 8.78303 3.21648 7.70715 3.55631 6.71359V4.65295H0.861523C-0.289127 6.91348 -0.289127 9.57671 0.861523 11.8372L3.55631 9.7766Z" fill="#FBBC04"/>
<path d="M8.11102 3.40948C9.26763 3.39185 10.3855 3.82101 11.2231 4.60883L13.5393 2.32478C12.0727 0.966712 10.1261 0.220065 8.11102 0.243581C5.04361 0.243581 2.23854 1.94853 0.861328 4.65291L3.55611 6.71355C4.19701 4.81753 5.99454 3.40948 8.11102 3.40948Z" fill="#EA4335"/>
</g>
</svg>
