<svg width="20" height="19" viewBox="0 0 20 19" fill="none" xmlns="http://www.w3.org/2000/svg">
<path d="M15.3648 0H4.63535C2.41321 0 0.611816 1.8014 0.611816 4.02353V14.7529C0.611816 16.9751 2.41321 18.7765 4.63535 18.7765H15.3648C17.5869 18.7765 19.3883 16.9751 19.3883 14.7529V4.02353C19.3883 1.8014 17.5869 0 15.3648 0Z" fill="url(#paint0_radial_49_208)"/>
<path d="M15.3648 0H4.63535C2.41321 0 0.611816 1.8014 0.611816 4.02353V14.7529C0.611816 16.9751 2.41321 18.7765 4.63535 18.7765H15.3648C17.5869 18.7765 19.3883 16.9751 19.3883 14.7529V4.02353C19.3883 1.8014 17.5869 0 15.3648 0Z" fill="url(#paint1_radial_49_208)"/>
<path d="M15.3648 0H4.63535C2.41321 0 0.611816 1.8014 0.611816 4.02353V14.7529C0.611816 16.9751 2.41321 18.7765 4.63535 18.7765H15.3648C17.5869 18.7765 19.3883 16.9751 19.3883 14.7529V4.02353C19.3883 1.8014 17.5869 0 15.3648 0Z" fill="url(#paint2_radial_49_208)"/>
<path d="M14.6944 5.69997C14.6944 6.25549 14.244 6.70586 13.6885 6.70586C13.133 6.70586 12.6826 6.25549 12.6826 5.69997C12.6826 5.14444 13.133 4.69409 13.6885 4.69409C14.244 4.69409 14.6944 5.14444 14.6944 5.69997Z" fill="white"/>
<path fill-rule="evenodd" clip-rule="evenodd" d="M9.99991 12.7413C11.8517 12.7413 13.3529 11.2401 13.3529 9.38834C13.3529 7.53658 11.8517 6.0354 9.99991 6.0354C8.14815 6.0354 6.64697 7.53658 6.64697 9.38834C6.64697 11.2401 8.14815 12.7413 9.99991 12.7413ZM9.99991 11.4001C11.111 11.4001 12.0117 10.4994 12.0117 9.38834C12.0117 8.27724 11.111 7.37658 9.99991 7.37658C8.88882 7.37658 7.98815 8.27724 7.98815 9.38834C7.98815 10.4994 8.88882 11.4001 9.99991 11.4001Z" fill="white"/>
<path fill-rule="evenodd" clip-rule="evenodd" d="M3.29395 9.12002C3.29395 6.86664 3.29395 5.73992 3.73248 4.87926C4.11823 4.12218 4.73375 3.50666 5.49083 3.12091C6.35149 2.68237 7.47822 2.68237 9.73159 2.68237H10.2681C12.5214 2.68237 13.6482 2.68237 14.5088 3.12091C15.2659 3.50666 15.8814 4.12218 16.2671 4.87926C16.7057 5.73992 16.7057 6.86664 16.7057 9.12002V9.65649C16.7057 11.9099 16.7057 13.0366 16.2671 13.8972C15.8814 14.6543 15.2659 15.2699 14.5088 15.6556C13.6482 16.0941 12.5214 16.0941 10.2681 16.0941H9.73159C7.47822 16.0941 6.35149 16.0941 5.49083 15.6556C4.73375 15.2699 4.11823 14.6543 3.73248 13.8972C3.29395 13.0366 3.29395 11.9099 3.29395 9.65649V9.12002ZM9.73159 4.02355H10.2681C11.4169 4.02355 12.1978 4.0246 12.8015 4.07391C13.3895 4.12195 13.6902 4.20903 13.9 4.31591C14.4047 4.57308 14.815 4.98342 15.0722 5.48811C15.179 5.69787 15.2662 5.99857 15.3142 6.5866C15.3635 7.19027 15.3645 7.97117 15.3645 9.12002V9.65649C15.3645 10.8053 15.3635 11.5862 15.3142 12.1899C15.2662 12.7779 15.179 13.0786 15.0722 13.2884C14.815 13.7931 14.4047 14.2034 13.9 14.4606C13.6902 14.5675 13.3895 14.6546 12.8015 14.7026C12.1978 14.7519 11.4169 14.753 10.2681 14.753H9.73159C8.58274 14.753 7.80184 14.7519 7.19818 14.7026C6.61014 14.6546 6.30945 14.5675 6.09969 14.4606C5.595 14.2034 5.18465 13.7931 4.92748 13.2884C4.8206 13.0786 4.73352 12.7779 4.68548 12.1899C4.63617 11.5862 4.63512 10.8053 4.63512 9.65649V9.12002C4.63512 7.97117 4.63617 7.19027 4.68548 6.5866C4.73352 5.99857 4.8206 5.69787 4.92748 5.48811C5.18465 4.98342 5.595 4.57308 6.09969 4.31591C6.30945 4.20903 6.61014 4.12195 7.19818 4.07391C7.80184 4.0246 8.58274 4.02355 9.73159 4.02355Z" fill="white"/>
<defs>
<radialGradient id="paint0_radial_49_208" cx="0" cy="0" r="1" gradientUnits="userSpaceOnUse" gradientTransform="translate(7.3177 14.0824) rotate(-55.3758) scale(17.1131)">
<stop stop-color="#B13589"/>
<stop offset="0.79309" stop-color="#C62F94"/>
<stop offset="1" stop-color="#8A3AC8"/>
</radialGradient>
<radialGradient id="paint1_radial_49_208" cx="0" cy="0" r="1" gradientUnits="userSpaceOnUse" gradientTransform="translate(6.64711 19.4471) rotate(-65.1363) scale(15.1514)">
<stop stop-color="#E0E8B7"/>
<stop offset="0.444662" stop-color="#FB8A2E"/>
<stop offset="0.71474" stop-color="#E2425C"/>
<stop offset="1" stop-color="#E2425C" stop-opacity="0"/>
</radialGradient>
<radialGradient id="paint2_radial_49_208" cx="0" cy="0" r="1" gradientUnits="userSpaceOnUse" gradientTransform="translate(-0.394066 0.670588) rotate(-8.1301) scale(26.0798 5.57819)">
<stop offset="0.156701" stop-color="#406ADC"/>
<stop offset="0.467799" stop-color="#6A45BE"/>
<stop offset="1" stop-color="#6A45BE" stop-opacity="0"/>
</radialGradient>
</defs>
</svg>
