<svg width="21" height="21" viewBox="0 0 21 21" fill="none" xmlns="http://www.w3.org/2000/svg">
<g clip-path="url(#clip0_587_1096)">
<path d="M9.3431 11.768C9.22268 12.3405 9.11273 12.9187 9.14676 13.5067L5.14206 13.5105C2.65638 13.8105 1.61282 15.7724 1.81538 18.0441C1.86349 18.5822 2.35467 19.1189 2.89526 19.2454C6.15649 19.3225 9.45306 19.3225 12.7143 19.2454C12.9119 19.2824 13.3792 18.8322 13.4489 18.83C13.5104 18.8278 13.7546 18.9163 13.8524 18.9343C14.3397 19.0241 14.8331 19.088 15.3309 19.0709C14.9032 20.1432 13.8135 20.8956 12.6328 21.0005L2.91293 20.9986C1.31373 20.8029 0.12063 19.5653 0.0165692 18.0115C-0.205951 14.6834 1.7591 12.0121 5.29978 11.7671L9.34245 11.7687L9.3431 11.768Z" fill="#292D32"/>
<path d="M7.30755 0.0174497C9.09328 -0.123543 10.8234 0.60671 11.8427 2.03466C13.329 4.11698 12.2907 7.16919 10.6856 8.90757C6.86775 13.0428 2.14051 7.14011 3.21449 3.20749C3.6772 1.51273 5.51856 0.158758 7.30755 0.0174497ZM7.53662 1.72454C5.99763 1.85604 4.78817 3.0216 4.8258 4.54597C4.86867 6.27961 6.9669 9.95206 9.06383 8.06857C10.3191 6.94095 11.4536 4.38158 10.2913 2.90148C9.66692 2.10642 8.56937 1.63665 7.53662 1.72485V1.72454Z" fill="#292D32"/>
<path d="M11.4703 9.83841C12.2063 9.11227 13.2286 8.89825 14.2453 9.05663C14.6881 9.12554 15.5683 9.68035 15.7192 9.68509C15.9446 9.69204 16.909 9.10436 17.4015 9.03956C20.5001 8.63302 22.0741 12.0766 20.1791 14.4153C19.4955 15.2594 17.3007 17.4397 16.4476 18.0975C16.177 18.3062 15.8488 18.5645 15.4947 18.3795L11.2606 14.3072C10.1958 13.043 10.291 11.0021 11.4703 9.83841ZM13.2966 10.5943C12.2956 10.7482 11.8948 11.9596 12.2053 12.8264C12.5731 13.8529 15.0025 15.5195 15.7205 16.4998L19.0557 13.1982C19.6918 12.3415 19.344 10.7315 18.1623 10.5734C17.0248 10.4213 16.3462 11.523 15.8239 11.5566C15.2345 11.5942 14.5591 10.4002 13.2963 10.5943H13.2966Z" fill="#B0B1B3"/>
</g>
<defs>
<clipPath id="clip0_587_1096">
<rect width="21" height="21" fill="white"/>
</clipPath>
</defs>
</svg>
