<svg width="19" height="19" viewBox="0 0 19 19" fill="none" xmlns="http://www.w3.org/2000/svg">
<path d="M16.1896 16.1895H13.3744V11.78C13.3744 10.7287 13.3554 9.37491 11.9098 9.37491C10.4437 9.37491 10.2188 10.5212 10.2188 11.7024V16.1895H7.40367V7.12183H10.1064V8.36158H10.1444C10.6954 7.42108 11.7214 6.85741 12.8108 6.897C15.6639 6.897 16.1912 8.77324 16.1912 11.2163L16.1896 16.188V16.1895ZM4.2275 5.88209C3.79505 5.88001 3.38088 5.7074 3.07494 5.40176C2.769 5.09612 2.596 4.68212 2.5935 4.24967C2.5935 3.35351 3.33133 2.61568 4.2275 2.61568C5.12367 2.61568 5.85992 3.35351 5.8615 4.24967C5.8615 5.14584 5.12367 5.88209 4.2275 5.88209ZM5.63508 16.1895H2.81675V7.12183H5.63508V16.1895ZM17.5908 2.35334e-05H1.40125C1.03416 -0.00210862 0.681051 0.140717 0.41867 0.397464C0.156289 0.654211 0.00583405 1.00413 0 1.37119V17.6288C0.00583405 17.9958 0.156289 18.3458 0.41867 18.6025C0.681051 18.8593 1.03416 19.0021 1.40125 19H17.5924C17.9604 19.0029 18.3146 18.8606 18.5782 18.6038C18.8417 18.3471 18.9933 17.9967 19 17.6288V1.3696C18.9933 1.002 18.8416 0.651925 18.578 0.395679C18.3143 0.139434 17.9601 -0.00221389 17.5924 0.00160675L17.5908 2.35334e-05Z" fill="#0A66C2"/>
</svg>
