<svg width="17" height="14" viewBox="0 0 17 14" fill="none" xmlns="http://www.w3.org/2000/svg">
<path d="M17 0.875V4.375L8.5 7.875L0 4.375V0.875C0 0.642936 0.0895533 0.420376 0.248959 0.256282C0.408365 0.0921874 0.624566 0 0.85 0H16.15C16.3754 0 16.5916 0.0921874 16.751 0.256282C16.9104 0.420376 17 0.642936 17 0.875ZM0 6.25975V13.125C0 13.3571 0.0895533 13.5796 0.248959 13.7437C0.408365 13.9078 0.624566 14 0.85 14H16.15C16.3754 14 16.5916 13.9078 16.751 13.7437C16.9104 13.5796 17 13.3571 17 13.125V6.25975L8.5 9.75975L0 6.25975Z" fill="#F5D199"/>
</svg>
