<svg width="25" height="25" viewBox="0 0 25 25" fill="none" xmlns="http://www.w3.org/2000/svg">
<g clip-path="url(#clip0_276_715)">
<path d="M23.2292 17.396L24.6875 15.9377L20.8333 12.0835L14.7917 18.1252C14.2708 17.8127 13.6458 17.7085 13.0208 17.7085C11.0417 17.7085 9.375 19.3752 9.375 21.3543C9.375 23.3335 11.0417 25.0002 13.0208 25.0002C15 25.0002 16.6667 23.3335 16.6667 21.3543C16.6667 20.7293 16.4583 20.1043 16.25 19.5835L18.2292 17.6043L20.625 20.0002L22.0833 18.5418L19.6875 16.146L20.8333 15.0002L23.2292 17.396ZM13.0208 22.9168C12.1875 22.9168 11.4583 22.1877 11.4583 21.3543C11.4583 20.521 12.1875 19.7918 13.0208 19.7918C13.8542 19.7918 14.5833 20.521 14.5833 21.3543C14.5833 22.1877 13.8542 22.9168 13.0208 22.9168Z" fill="#B0B1B3"/>
<path d="M2.08333 19.7917C2.08333 15.7292 5.3125 12.5 9.375 12.5C11.4583 12.5 13.4375 13.4375 14.8958 15L16.4583 13.6458C15.5208 12.6042 14.4792 11.7708 13.2292 11.25C14.6875 10.1042 15.625 8.22917 15.625 6.25C15.625 2.8125 12.8125 0 9.375 0C5.9375 0 3.125 2.8125 3.125 6.25C3.125 8.22917 4.0625 10.1042 5.625 11.25C2.29167 12.7083 0 15.9375 0 19.7917V25H8.33333V22.9167H2.08333V19.7917ZM5.20833 6.25C5.20833 3.95833 7.08333 2.08333 9.375 2.08333C11.6667 2.08333 13.5417 3.95833 13.5417 6.25C13.5417 8.54167 11.6667 10.4167 9.375 10.4167C7.08333 10.4167 5.20833 8.54167 5.20833 6.25Z" fill="#292D32"/>
</g>
<defs>
<clipPath id="clip0_276_715">
<rect width="25" height="25" fill="white"/>
</clipPath>
</defs>
</svg>
