<svg width="25" height="25" viewBox="0 0 25 25" fill="none" xmlns="http://www.w3.org/2000/svg">
<path fill-rule="evenodd" clip-rule="evenodd" d="M7.73045 2.00022C7.82927 1.99778 7.92756 2.01545 8.01935 2.05214C8.11114 2.08884 8.19451 2.14381 8.26441 2.21371C8.33431 2.28361 8.38928 2.36698 8.42598 2.45877C8.46268 2.55056 8.48034 2.64885 8.4779 2.74767V3.24597C8.48034 3.34479 8.46268 3.44308 8.42598 3.53487C8.38928 3.62666 8.33431 3.71003 8.26441 3.77993C8.19451 3.84983 8.11114 3.9048 8.01935 3.9415C7.92756 3.9782 7.82927 3.99586 7.73045 3.99342H5.4881C5.1034 3.99211 4.73307 4.13951 4.4545 4.40482C4.17592 4.67013 4.01064 5.03283 3.9932 5.41714V19.5119C3.99189 19.8966 4.13929 20.2669 4.4046 20.5455C4.66991 20.8241 5.03261 20.9894 5.41691 21.0068H19.5117C19.8964 21.0081 20.2667 20.8607 20.5453 20.5954C20.8239 20.3301 20.9891 19.9674 21.0066 19.5831V17.2696C21.0041 17.1707 21.0218 17.0724 21.0585 16.9807C21.0952 16.8889 21.1502 16.8055 21.2201 16.7356C21.29 16.6657 21.3733 16.6107 21.4651 16.574C21.5569 16.5373 21.6552 16.5197 21.754 16.5221H22.2523C22.3512 16.5197 22.4494 16.5373 22.5412 16.574C22.633 16.6107 22.7164 16.6657 22.7863 16.7356C22.8562 16.8055 22.9112 16.8889 22.9479 16.9807C22.9846 17.0724 23.0022 17.1707 22.9998 17.2696V20.0102C23.0002 20.403 22.9232 20.792 22.7731 21.1549C22.6231 21.5179 22.4029 21.8476 22.1251 22.1254C21.8474 22.4031 21.5176 22.6233 21.1547 22.7734C20.7917 22.9235 20.4027 23.0005 20.01 23H4.9898C4.59704 23.0005 4.20805 22.9235 3.8451 22.7734C3.48215 22.6233 3.15237 22.4031 2.87465 22.1254C2.59693 21.8476 2.37672 21.5179 2.22663 21.1549C2.07655 20.792 1.99953 20.403 2 20.0102V4.99002C1.99953 4.59726 2.07655 4.20827 2.22663 3.84532C2.37672 3.48237 2.59693 3.15259 2.87465 2.87487C3.15237 2.59715 3.48215 2.37694 3.8451 2.22685C4.20805 2.07677 4.59704 1.99975 4.9898 2.00022H7.73045Z" fill="#292D32"/>
<path d="M14.1378 3.24546L17.8394 3.31664C18.1253 3.34791 18.3966 3.45891 18.6224 3.63698L20.0817 5.09627L21.541 6.55557C21.646 6.6566 21.7287 6.77843 21.7839 6.91327C21.839 7.04811 21.8654 7.19298 21.8614 7.3386L21.9326 11.0402C21.9367 11.1912 21.9104 11.3414 21.8554 11.482C21.8004 11.6226 21.7177 11.7508 21.6122 11.8589L15.5259 17.9452C15.3169 18.1504 15.0357 18.2654 14.7429 18.2654C14.45 18.2654 14.1688 18.1504 13.9598 17.9452L10.6141 14.5995L7.26842 11.2538C7.06321 11.0448 6.94824 10.7636 6.94824 10.4708C6.94824 10.1779 7.06321 9.89669 7.26842 9.68771L13.3547 3.60138C13.4461 3.4824 13.5653 3.38771 13.7018 3.32564C13.8384 3.26358 13.9881 3.23604 14.1378 3.24546ZM12.0734 9.15382L11.4683 9.7589C11.4166 9.81092 11.3876 9.8813 11.3876 9.95466C11.3876 10.028 11.4166 10.0984 11.4683 10.1504L15.0276 13.7097C15.0796 13.7614 15.15 13.7904 15.2234 13.7904C15.2967 13.7904 15.3671 13.7614 15.4191 13.7097L16.0242 13.1046C16.0759 13.0526 16.105 12.9822 16.105 12.9088C16.105 12.8355 16.0759 12.7651 16.0242 12.7131L12.4649 9.15382C12.4129 9.1021 12.3425 9.07306 12.2692 9.07306C12.1958 9.07306 12.1254 9.1021 12.0734 9.15382ZM13.7463 7.48098L13.1412 8.08605C13.0895 8.13807 13.0604 8.20845 13.0604 8.28181C13.0604 8.35517 13.0895 8.42555 13.1412 8.47757L16.7004 12.0368C16.7525 12.0886 16.8228 12.1176 16.8962 12.1176C16.9696 12.1176 17.0399 12.0886 17.092 12.0368L17.697 11.4318C17.7488 11.3797 17.7778 11.3094 17.7778 11.236C17.7778 11.1626 17.7488 11.0923 17.697 11.0402L14.1378 7.48098C14.0858 7.42925 14.0154 7.40021 13.942 7.40021C13.8687 7.40021 13.7983 7.42925 13.7463 7.48098ZM19.4767 5.70135C19.3218 5.54663 19.1246 5.44129 18.9099 5.39866C18.6952 5.35602 18.4727 5.37799 18.2705 5.4618C18.0682 5.54561 17.8954 5.68749 17.7738 5.8695C17.6522 6.05151 17.5873 6.26549 17.5873 6.48438C17.5873 6.70327 17.6522 6.91725 17.7738 7.09927C17.8954 7.28128 18.0682 7.42316 18.2705 7.50697C18.4727 7.59077 18.6952 7.61275 18.9099 7.57011C19.1246 7.52747 19.3218 7.42213 19.4767 7.26742C19.6819 7.05844 19.7968 6.77726 19.7968 6.48438C19.7968 6.1915 19.6819 5.91032 19.4767 5.70135Z" fill="#B0B1B3"/>
</svg>
