<svg width="30" height="22" viewBox="0 0 30 22" fill="none" xmlns="http://www.w3.org/2000/svg">
<path d="M27.2807 1.42105H2.7193C1.76976 1.42105 1 2.19081 1 3.14035V18.8596C1 19.8092 1.76976 20.5789 2.7193 20.5789H27.2807C28.2302 20.5789 29 19.8092 29 18.8596V3.14035C29 2.19081 28.2302 1.42105 27.2807 1.42105Z" fill="white" stroke="#F3F3F3" stroke-width="1.03448"/>
<path fill-rule="evenodd" clip-rule="evenodd" d="M11.1919 16.3498V17.0752V17.8007H10.8739V17.6246C10.7731 17.7552 10.6201 17.8372 10.4121 17.8372C10.002 17.8372 9.68054 17.5186 9.68054 17.0752C9.68054 16.6322 10.002 16.3133 10.4121 16.3133C10.6201 16.3133 10.7731 16.3953 10.8739 16.5259V16.3498H11.1919ZM10.4516 16.6107C10.1764 16.6107 10.0079 16.8202 10.0079 17.0752C10.0079 17.3303 10.1764 17.5398 10.4516 17.5398C10.7146 17.5398 10.8922 17.3393 10.8922 17.0752C10.8922 16.8112 10.7146 16.6107 10.4516 16.6107ZM21.937 17.0752C21.937 16.8202 22.1054 16.6107 22.3807 16.6107C22.644 16.6107 22.8212 16.8112 22.8212 17.0752C22.8212 17.3393 22.644 17.5398 22.3807 17.5398C22.1054 17.5398 21.937 17.3303 21.937 17.0752ZM23.1213 15.7671V17.0752V17.8007H22.803V17.6246C22.7021 17.7552 22.5491 17.8372 22.3411 17.8372C21.931 17.8372 21.6096 17.5186 21.6096 17.0752C21.6096 16.6322 21.931 16.3133 22.3411 16.3133C22.5491 16.3133 22.7021 16.3953 22.803 16.5259V15.7671H23.1213ZM15.1389 16.5958C15.3437 16.5958 15.4754 16.7233 15.509 16.9478H14.7502C14.7841 16.7382 14.9123 16.5958 15.1389 16.5958ZM14.4168 17.0752C14.4168 16.6229 14.7165 16.3133 15.1452 16.3133C15.5549 16.3133 15.8364 16.6229 15.8396 17.0752C15.8396 17.1176 15.8364 17.1573 15.8333 17.1965H14.7474C14.7932 17.4578 14.9799 17.552 15.1847 17.552C15.3314 17.552 15.4876 17.497 15.6102 17.4001L15.766 17.634C15.5885 17.7826 15.3868 17.8372 15.1665 17.8372C14.7288 17.8372 14.4168 17.5367 14.4168 17.0752ZM18.9846 17.0752C18.9846 16.8202 19.153 16.6107 19.4283 16.6107C19.6912 16.6107 19.8688 16.8112 19.8688 17.0752C19.8688 17.3393 19.6912 17.5398 19.4283 17.5398C19.153 17.5398 18.9846 17.3303 18.9846 17.0752ZM20.1686 16.3498V17.0752V17.8007H19.8506V17.6246C19.7494 17.7552 19.5967 17.8372 19.3887 17.8372C18.9786 17.8372 18.6571 17.5186 18.6571 17.0752C18.6571 16.6322 18.9786 16.3133 19.3887 16.3133C19.5967 16.3133 19.7494 16.3953 19.8506 16.5259V16.3498H20.1686ZM17.1888 17.0752C17.1888 17.5155 17.4977 17.8372 17.969 17.8372C18.1893 17.8372 18.336 17.7886 18.495 17.6642L18.3423 17.4092C18.2229 17.4943 18.0975 17.5398 17.9596 17.5398C17.7057 17.5367 17.5191 17.3546 17.5191 17.0752C17.5191 16.7959 17.7057 16.6138 17.9596 16.6107C18.0975 16.6107 18.2229 16.6562 18.3423 16.7413L18.495 16.4863C18.336 16.3619 18.1893 16.3133 17.969 16.3133C17.4977 16.3133 17.1888 16.635 17.1888 17.0752ZM20.9029 16.5259C20.9855 16.3984 21.1049 16.3133 21.2885 16.3133C21.3529 16.3133 21.4446 16.3255 21.515 16.3529L21.417 16.6503C21.3497 16.6229 21.2825 16.6138 21.2181 16.6138C21.01 16.6138 20.906 16.7472 20.906 16.9873V17.8007H20.5877V16.3498H20.9029V16.5259ZM12.7646 16.4651C12.6116 16.3651 12.4008 16.3133 12.1682 16.3133C11.7977 16.3133 11.5592 16.4894 11.5592 16.7778C11.5592 17.0145 11.7368 17.1604 12.0639 17.2059L12.2141 17.2271C12.3885 17.2514 12.4708 17.2969 12.4708 17.3789C12.4708 17.4912 12.3545 17.5551 12.1374 17.5551C11.9172 17.5551 11.7582 17.4853 11.651 17.4032L11.5011 17.6489C11.6755 17.7764 11.8958 17.8372 12.1343 17.8372C12.5566 17.8372 12.8014 17.6398 12.8014 17.3636C12.8014 17.1086 12.6088 16.9752 12.2904 16.9297L12.1406 16.9081C12.003 16.89 11.8926 16.863 11.8926 16.7657C11.8926 16.6594 11.9966 16.5958 12.171 16.5958C12.3577 16.5958 12.5384 16.6656 12.627 16.7202L12.7646 16.4651ZM16.4822 16.5259C16.5645 16.3984 16.6839 16.3133 16.8674 16.3133C16.9318 16.3133 17.0236 16.3255 17.0939 16.3529L16.9959 16.6503C16.9287 16.6229 16.8614 16.6138 16.797 16.6138C16.589 16.6138 16.485 16.7472 16.485 16.9873V17.8007H16.167V16.3498H16.4822V16.5259ZM14.1538 16.3498H13.6337V15.9095H13.3123V16.3498H13.0157V16.6381H13.3123V17.3001C13.3123 17.6368 13.4439 17.8372 13.8201 17.8372C13.958 17.8372 14.117 17.7948 14.2179 17.725L14.1261 17.4547C14.0312 17.5092 13.9272 17.5367 13.8446 17.5367C13.6856 17.5367 13.6337 17.4394 13.6337 17.2938V16.6381H14.1538V16.3498ZM9.39931 16.89V17.8007H9.07785V16.9932C9.07785 16.7472 8.97386 16.6107 8.75674 16.6107C8.54556 16.6107 8.39883 16.7445 8.39883 16.9964V17.8007H8.07737V16.9932C8.07737 16.7472 7.97058 16.6107 7.7594 16.6107C7.54193 16.6107 7.40119 16.7445 7.40119 16.9964V17.8007H7.08008V16.3498H7.39839V16.5287C7.51781 16.3588 7.67049 16.3133 7.82665 16.3133C8.05006 16.3133 8.20907 16.4106 8.30992 16.5714C8.44471 16.3679 8.63732 16.3101 8.82399 16.3133C9.17905 16.3164 9.39931 16.5471 9.39931 16.89Z" fill="#231F20"/>
<path d="M17.4784 13.8842H12.6592V5.29109H17.4784V13.8842Z" fill="#FF5F00"/>
<path d="M12.9648 9.58786C12.9648 7.84469 13.7874 6.29192 15.0683 5.29127C14.1316 4.55954 12.9494 4.1228 11.6646 4.1228C8.6229 4.1228 6.15723 6.56956 6.15723 9.58786C6.15723 12.6062 8.6229 15.0529 11.6646 15.0529C12.9494 15.0529 14.1316 14.6162 15.0683 13.8844C13.7874 12.8838 12.9648 11.331 12.9648 9.58786Z" fill="#EB001B"/>
<path d="M23.9809 9.58786C23.9809 12.6062 21.5152 15.0529 18.4735 15.0529C17.1886 15.0529 16.0065 14.6162 15.0693 13.8844C16.3507 12.8838 17.1733 11.331 17.1733 9.58786C17.1733 7.84469 16.3507 6.29192 15.0693 5.29127C16.0065 4.55954 17.1886 4.1228 18.4735 4.1228C21.5152 4.1228 23.9809 6.56956 23.9809 9.58786Z" fill="#F79E1B"/>
</svg>
