<svg width="25" height="25" viewBox="0 0 25 25" fill="none" xmlns="http://www.w3.org/2000/svg">
<path d="M3.125 8.125C3.125 6.37483 3.125 5.49975 3.4656 4.83128C3.76521 4.24327 4.24327 3.76521 4.83128 3.4656C5.49975 3.125 6.37483 3.125 8.125 3.125H16.875C18.6252 3.125 19.5002 3.125 20.1687 3.4656C20.7568 3.76521 21.2348 4.24327 21.5344 4.83128C21.875 5.49975 21.875 6.37483 21.875 8.125V13.75C21.875 15.5002 21.875 16.3752 21.5344 17.0437C21.2348 17.6318 20.7568 18.1098 20.1687 18.4094C19.5002 18.75 18.6252 18.75 16.875 18.75H14.2539C13.6039 18.75 13.2789 18.75 12.9679 18.8139C12.6921 18.8704 12.4252 18.9641 12.1745 19.0922C11.8919 19.2366 11.638 19.4396 11.1304 19.8456L8.64558 21.8335C8.21216 22.1803 7.99545 22.3536 7.81306 22.3539C7.65445 22.3541 7.5044 22.2819 7.40545 22.1579C7.29167 22.0154 7.29167 21.7379 7.29167 21.1828V18.75C6.32295 18.75 5.83858 18.75 5.44119 18.6435C4.36278 18.3546 3.52044 17.5122 3.23148 16.4339C3.125 16.0365 3.125 15.5521 3.125 14.5833V8.125Z" stroke="#292D32" stroke-width="2" stroke-linecap="round" stroke-linejoin="round"/>
<path fill-rule="evenodd" clip-rule="evenodd" d="M12.4968 8.02005C11.5596 6.93792 9.99676 6.64682 8.82251 7.63774C7.64827 8.62865 7.48296 10.2854 8.40509 11.4574C8.97638 12.1834 10.4103 13.5095 11.4187 14.4135C11.7892 14.7455 11.9743 14.9116 12.1966 14.9784C12.3873 15.0358 12.6064 15.0358 12.797 14.9784C13.0193 14.9116 13.2045 14.7455 13.5749 14.4135C14.5832 13.5095 16.0172 12.1834 16.5884 11.4574C17.5106 10.2854 17.3655 8.61823 16.171 7.63774C14.9767 6.65725 13.434 6.93792 12.4968 8.02005Z" stroke="#B0B1B3" stroke-width="2" stroke-linecap="round" stroke-linejoin="round"/>
</svg>
