<svg width="25" height="25" viewBox="0 0 25 25" fill="none" xmlns="http://www.w3.org/2000/svg">
<path opacity="0.4" d="M12.6257 13.3124C12.5527 13.302 12.459 13.302 12.3757 13.3124C10.5423 13.2499 9.08398 11.7499 9.08398 9.90617C9.08398 8.02075 10.6048 6.4895 12.5007 6.4895C14.3861 6.4895 15.9173 8.02075 15.9173 9.90617C15.9069 11.7499 14.459 13.2499 12.6257 13.3124Z" stroke="#292D32" stroke-width="2" stroke-linecap="round" stroke-linejoin="round"/>
<path opacity="0.34" d="M19.5207 20.1875C17.6665 21.8854 15.2082 22.9167 12.4999 22.9167C9.7915 22.9167 7.33317 21.8854 5.479 20.1875C5.58317 19.2083 6.20817 18.25 7.32275 17.5C10.1769 15.6042 14.8436 15.6042 17.677 17.5C18.7915 18.25 19.4165 19.2083 19.5207 20.1875Z" stroke="#292D32" stroke-width="2" stroke-linecap="round" stroke-linejoin="round"/>
<path d="M12.5002 22.9166C18.2531 22.9166 22.9168 18.2528 22.9168 12.4999C22.9168 6.74695 18.2531 2.08325 12.5002 2.08325C6.74719 2.08325 2.0835 6.74695 2.0835 12.4999C2.0835 18.2528 6.74719 22.9166 12.5002 22.9166Z" stroke="#292D32" stroke-width="2" stroke-linecap="round" stroke-linejoin="round"/>
</svg>
