<svg width="39" height="12" viewBox="0 0 39 12" fill="none" xmlns="http://www.w3.org/2000/svg">
<path d="M6.82134 1.38075C6.34025 1.05001 5.71246 0.884247 4.93798 0.884247H1.93961C1.70219 0.884247 1.57101 1.00299 1.5461 1.24018L0.328042 8.88613C0.315383 8.96122 0.334171 9.0299 0.384234 9.09233C0.43401 9.15488 0.496617 9.18598 0.571596 9.18598H1.9958C2.2456 9.18598 2.3829 9.06753 2.4081 8.82999L2.74537 6.76872C2.75768 6.66882 2.80161 6.5876 2.87659 6.52505C2.95152 6.46262 3.04523 6.42177 3.15767 6.40304C3.27011 6.38449 3.37613 6.37515 3.47626 6.37515C3.57609 6.37515 3.69472 6.38145 3.83236 6.39388C3.96966 6.40637 4.05719 6.41244 4.09471 6.41244C5.16905 6.41244 6.01232 6.10971 6.62458 5.50364C7.23656 4.89779 7.54289 4.05766 7.54289 2.98309C7.54289 2.24607 7.30221 1.712 6.82134 1.38075ZM5.27536 3.67652C5.21269 4.11386 5.05048 4.40106 4.78814 4.53853C4.52574 4.67617 4.15095 4.74456 3.66379 4.74456L3.04534 4.76335L3.36399 2.75816C3.38885 2.62086 3.47001 2.55212 3.60754 2.55212H3.96371C4.46319 2.55212 4.82571 2.62412 5.05059 2.76755C5.27536 2.91132 5.35034 3.21445 5.27536 3.67652Z" fill="#003087"/>
<path d="M38.4629 0.884247H37.0763C36.9385 0.884247 36.8574 0.952983 36.8327 1.0904L35.6145 8.88612L35.5957 8.92359C35.5957 8.98636 35.6207 9.04542 35.6708 9.10167C35.7205 9.1578 35.7832 9.18593 35.8581 9.18593H37.0951C37.3321 9.18593 37.4633 9.06747 37.4886 8.82993L38.7067 1.1652V1.14659C38.7066 0.971713 38.6252 0.884247 38.4629 0.884247Z" fill="#009CDE"/>
<path d="M21.7106 3.9013C21.7106 3.83898 21.6855 3.77953 21.6358 3.72339C21.5857 3.6672 21.5294 3.63896 21.4671 3.63896H20.0241C19.8864 3.63896 19.774 3.70174 19.6868 3.82632L17.7004 6.74989L16.8759 3.93888C16.8132 3.73909 16.6758 3.63896 16.4636 3.63896H15.058C14.9953 3.63896 14.9391 3.66714 14.8894 3.72339C14.8393 3.77953 14.8145 3.83904 14.8145 3.9013C14.8145 3.92651 14.9363 4.29487 15.1798 5.00698C15.4234 5.71919 15.6858 6.48754 15.9669 7.3122C16.2481 8.13663 16.3947 8.57413 16.4073 8.6238C15.3828 10.0231 14.8706 10.7728 14.8706 10.8725C14.8706 11.0351 14.9518 11.1162 15.1143 11.1162H16.5572C16.6947 11.1162 16.807 11.0539 16.8946 10.9289L21.6733 4.03247C21.6981 4.00761 21.7106 3.96408 21.7106 3.9013Z" fill="#003087"/>
<path d="M35.1469 3.63896H33.7225C33.5476 3.63896 33.4416 3.84511 33.4042 4.25741C33.079 3.75793 32.4859 3.50774 31.6238 3.50774C30.7242 3.50774 29.9589 3.84511 29.3282 4.51976C28.6972 5.19446 28.3818 5.9879 28.3818 6.89979C28.3818 7.63704 28.5973 8.22416 29.0282 8.66126C29.4593 9.09882 30.0371 9.31717 30.7619 9.31717C31.1241 9.31717 31.4926 9.24208 31.8674 9.09229C32.2422 8.94239 32.5355 8.7426 32.7483 8.49263C32.7483 8.50517 32.7356 8.56131 32.7108 8.6612C32.6856 8.76133 32.6732 8.83642 32.6732 8.88608C32.6732 9.08622 32.7542 9.18589 32.9169 9.18589H34.2101C34.4471 9.18589 34.5847 9.06743 34.6221 8.82989L35.3905 3.93882C35.4029 3.86384 35.3841 3.79522 35.3343 3.73267C35.2842 3.6703 35.2218 3.63896 35.1469 3.63896ZM32.7014 7.33076C32.3828 7.64311 31.9987 7.7992 31.5489 7.7992C31.1864 7.7992 30.8931 7.69942 30.6681 7.4994C30.4432 7.29983 30.3307 7.02495 30.3307 6.67485C30.3307 6.21289 30.4869 5.82224 30.7993 5.50365C31.1113 5.18506 31.4989 5.02577 31.9612 5.02577C32.3107 5.02577 32.6012 5.12887 32.8325 5.33496C33.0635 5.54111 33.1793 5.82545 33.1793 6.18774C33.1792 6.63745 33.0199 7.01859 32.7014 7.33076Z" fill="#009CDE"/>
<path d="M13.8579 3.63896H12.4337C12.2586 3.63896 12.1526 3.84511 12.1151 4.25741C11.7777 3.75793 11.1843 3.50774 10.3348 3.50774C9.43523 3.50774 8.66992 3.84511 8.03909 4.51976C7.4081 5.19446 7.09277 5.9879 7.09277 6.89979C7.09277 7.63704 7.30832 8.22416 7.73935 8.66126C8.17038 9.09882 8.74805 9.31717 9.47275 9.31717C9.82239 9.31717 10.1849 9.24208 10.5596 9.09229C10.9344 8.94239 11.2343 8.7426 11.4592 8.49263C11.409 8.64253 11.3842 8.77376 11.3842 8.88608C11.3842 9.08622 11.4653 9.18589 11.6278 9.18589H12.9208C13.158 9.18589 13.2956 9.06743 13.3331 8.82989L14.1014 3.93882C14.1137 3.86384 14.095 3.79522 14.0452 3.73267C13.9952 3.6703 13.9328 3.63896 13.8579 3.63896ZM11.4124 7.34004C11.0937 7.64649 10.7031 7.7992 10.2412 7.7992C9.87864 7.7992 9.58817 7.69942 9.3697 7.4994C9.15095 7.29983 9.04172 7.02495 9.04172 6.67485C9.04172 6.21289 9.19781 5.82224 9.51027 5.50365C9.82239 5.18506 10.2097 5.02577 10.6721 5.02577C11.0218 5.02577 11.3122 5.12887 11.5436 5.33496C11.7745 5.54111 11.8902 5.82545 11.8902 6.18774C11.8902 6.64999 11.731 7.03428 11.4124 7.34004Z" fill="#003087"/>
<path d="M28.1094 1.38075C27.6284 1.05001 27.0007 0.884247 26.2261 0.884247H23.2465C22.9965 0.884247 22.859 1.00299 22.8342 1.24018L21.6161 8.88607C21.6035 8.96116 21.6222 9.02984 21.6723 9.09227C21.7219 9.15482 21.7847 9.18593 21.8597 9.18593H23.3963C23.5462 9.18593 23.6461 9.10482 23.6961 8.94237L24.0335 6.76866C24.0459 6.66876 24.0896 6.58754 24.1647 6.52499C24.2397 6.46256 24.3333 6.42172 24.4458 6.40299C24.5582 6.38443 24.6642 6.37509 24.7644 6.37509C24.8642 6.37509 24.9829 6.38139 25.1203 6.39382C25.2578 6.40631 25.3455 6.41238 25.3827 6.41238C26.4572 6.41238 27.3004 6.10966 27.9126 5.50358C28.5248 4.89773 28.8309 4.05761 28.8309 2.98304C28.8309 2.24607 28.5903 1.712 28.1094 1.38075ZM26.1886 4.46355C25.9137 4.65091 25.5014 4.74456 24.9518 4.74456L24.3521 4.76335L24.6708 2.75816C24.6955 2.62086 24.7767 2.55212 24.9143 2.55212H25.2515C25.5263 2.55212 25.7449 2.56461 25.9076 2.58952C26.0698 2.61473 26.2261 2.69257 26.376 2.82374C26.526 2.95497 26.6009 3.14554 26.6009 3.39539C26.6009 3.92008 26.4633 4.27607 26.1886 4.46355Z" fill="#009CDE"/>
</svg>
