<svg width="99" height="78" viewBox="0 0 99 78" fill="none" xmlns="http://www.w3.org/2000/svg">
<path d="M3.73919 66.724C3.73919 66.724 4.56052 65.492 6.20319 63.028C8.05119 60.564 10.1045 57.484 12.3632 53.788C14.8272 50.092 16.7779 46.4987 18.2152 43.008C12.2605 41.776 7.74319 39.2093 4.66319 35.308C1.78852 31.4067 0.351187 27.0947 0.351187 22.372C0.351187 15.8013 2.50719 10.5653 6.81919 6.664C11.1312 2.55732 16.5725 0.503985 23.1432 0.503985C29.3032 0.503985 34.7445 2.86532 39.4672 7.58799C44.1899 12.1053 46.5512 17.6493 46.5512 24.22C46.5512 30.5853 45.1139 36.7453 42.2392 42.7C39.5699 48.6547 36.2845 54.096 32.3832 59.024C28.4819 63.952 24.7859 68.1613 21.2952 71.652C18.0099 74.9373 15.8539 76.9907 14.8272 77.812L3.73919 66.724ZM55.4856 66.724C55.4856 66.724 56.3069 65.492 57.9496 63.028C59.7976 60.564 61.8509 57.484 64.1096 53.788C66.5736 50.092 68.5243 46.4987 69.9616 43.008C64.0069 41.776 59.4896 39.2093 56.4096 35.308C53.5349 31.4067 52.0976 27.0947 52.0976 22.372C52.0976 15.8013 54.2536 10.5653 58.5656 6.664C62.8776 2.55732 68.3189 0.503985 74.8896 0.503985C81.0496 0.503985 86.4909 2.86532 91.2136 7.58799C95.9363 12.1053 98.2976 17.6493 98.2976 24.22C98.2976 30.5853 96.8603 36.7453 93.9856 42.7C91.3163 48.6547 88.0309 54.096 84.1296 59.024C80.2283 63.952 76.5323 68.1613 73.0416 71.652C69.7563 74.9373 67.6003 76.9907 66.5736 77.812L55.4856 66.724Z" fill="#FF736C"/>
</svg>
