<svg width="25" height="25" viewBox="0 0 25 25" fill="none" xmlns="http://www.w3.org/2000/svg">
<g clip-path="url(#clip0_587_1110)">
<path d="M4.6875 16.4062V15.625H3.125V16.4062C3.125 17.8567 3.70117 19.2477 4.72676 20.2732C5.75235 21.2988 7.14335 21.875 8.59375 21.875H10.9375V20.3125H8.59375C7.55775 20.3125 6.56418 19.9009 5.83161 19.1684C5.09905 18.4358 4.6875 17.4423 4.6875 16.4062Z" fill="#B0B1B3"/>
<path d="M18.75 8.59375V9.375H20.3125V8.59375C20.3125 7.14335 19.7363 5.75235 18.7107 4.72676C17.6852 3.70117 16.2942 3.125 14.8438 3.125H12.5V4.6875H14.8438C15.3567 4.6875 15.8647 4.78854 16.3386 4.98485C16.8125 5.18115 17.2432 5.46889 17.6059 5.83161C17.9686 6.19434 18.2563 6.62496 18.4527 7.09889C18.649 7.57282 18.75 8.08077 18.75 8.59375Z" fill="#B0B1B3"/>
<path d="M8.59375 8.54395C9.22861 8.54395 9.83722 8.7962 10.2861 9.24512C10.735 9.69403 10.9873 10.3026 10.9873 10.9375V12.5498H9.3252V10.9375C9.3252 10.7436 9.24749 10.558 9.11035 10.4209C8.97322 10.2838 8.78769 10.2061 8.59375 10.2061H3.90625C3.71231 10.2061 3.52678 10.2838 3.38965 10.4209C3.25251 10.558 3.1748 10.7436 3.1748 10.9375V12.5498H1.5127V10.9375C1.5127 10.3026 1.76495 9.69403 2.21387 9.24512C2.66278 8.7962 3.27139 8.54395 3.90625 8.54395H8.59375Z" fill="#292D32" stroke="#292D32" stroke-width="0.1"/>
<path d="M5.03516 1.75391C5.61515 1.51372 6.25344 1.45083 6.86914 1.57324C7.48503 1.69575 8.05109 1.99835 8.49512 2.44238C8.93915 2.88641 9.24175 3.45247 9.36426 4.06836C9.48667 4.68407 9.42378 5.32235 9.18359 5.90234C8.94329 6.4825 8.5358 6.97827 8.01367 7.32715C7.49156 7.676 6.87793 7.8623 6.25 7.8623C5.40794 7.8623 4.60031 7.52805 4.00488 6.93262C3.40946 6.33719 3.0752 5.52956 3.0752 4.6875C3.0752 4.05957 3.2615 3.44594 3.61035 2.92383C3.95923 2.4017 4.455 1.99421 5.03516 1.75391ZM6.25 3.1748C5.84886 3.1748 5.46431 3.33452 5.18066 3.61816C4.89702 3.90181 4.73731 4.28636 4.7373 4.6875C4.7373 4.98648 4.82617 5.2787 4.99219 5.52734C5.15834 5.77601 5.39462 5.97047 5.6709 6.08496C5.94723 6.19942 6.25157 6.22922 6.54492 6.1709C6.83832 6.11254 7.10781 5.96836 7.31934 5.75684C7.53086 5.54531 7.67504 5.27582 7.7334 4.98242C7.79172 4.68907 7.76192 4.38473 7.64746 4.1084C7.53297 3.83212 7.33851 3.59584 7.08984 3.42969C6.8412 3.26367 6.54898 3.1748 6.25 3.1748Z" fill="#292D32" stroke="#292D32" stroke-width="0.1"/>
<path d="M21.0938 19.4814C21.7286 19.4814 22.3372 19.7337 22.7861 20.1826C23.235 20.6315 23.4873 21.2401 23.4873 21.875V23.4873H21.8252V21.875C21.8252 21.6811 21.7475 21.4955 21.6104 21.3584C21.4732 21.2213 21.2877 21.1436 21.0938 21.1436H16.4062C16.2123 21.1436 16.0268 21.2213 15.8896 21.3584C15.7525 21.4955 15.6748 21.6811 15.6748 21.875V23.4873H14.0127V21.875L14.0244 21.6387C14.0788 21.0906 14.321 20.5755 14.7139 20.1826C15.1628 19.7337 15.7714 19.4814 16.4062 19.4814H21.0938Z" fill="#292D32" stroke="#292D32" stroke-width="0.1"/>
<path d="M18.75 12.4502C19.3779 12.4502 19.9916 12.6365 20.5137 12.9854C21.0358 13.3342 21.4433 13.83 21.6836 14.4102C21.9238 14.9901 21.9867 15.6284 21.8643 16.2441C21.7417 16.86 21.4391 17.4261 20.9951 17.8701C20.5511 18.3141 19.985 18.6167 19.3691 18.7393C18.7534 18.8617 18.1151 18.7988 17.5352 18.5586C16.955 18.3183 16.4592 17.9108 16.1104 17.3887C15.7615 16.8666 15.5752 16.2529 15.5752 15.625C15.5752 14.7829 15.9095 13.9753 16.5049 13.3799C17.1003 12.7845 17.9079 12.4502 18.75 12.4502ZM18.75 14.1123C18.451 14.1123 18.1588 14.2012 17.9102 14.3672C17.6615 14.5333 17.467 14.7696 17.3525 15.0459C17.2381 15.3222 17.2083 15.6266 17.2666 15.9199C17.325 16.2133 17.4691 16.4828 17.6807 16.6943C17.8922 16.9059 18.1617 17.05 18.4551 17.1084C18.7484 17.1667 19.0528 17.1369 19.3291 17.0225C19.6054 16.908 19.8417 16.7135 20.0078 16.4648C20.1738 16.2162 20.2627 15.924 20.2627 15.625C20.2627 15.2239 20.103 14.8393 19.8193 14.5557C19.5357 14.272 19.1511 14.1123 18.75 14.1123Z" fill="#292D32" stroke="#292D32" stroke-width="0.1"/>
</g>
<defs>
<clipPath id="clip0_587_1110">
<rect width="25" height="25" fill="white"/>
</clipPath>
</defs>
</svg>
