<svg width="25" height="25" viewBox="0 0 25 25" fill="none" xmlns="http://www.w3.org/2000/svg">
<path d="M3.125 10.8509C3.125 7.52003 3.125 5.85462 3.51825 5.29434C3.91149 4.73406 5.47742 4.19804 8.60928 3.12599L9.20596 2.92175C10.8385 2.36291 11.6548 2.0835 12.5 2.0835C13.3452 2.0835 14.1615 2.36291 15.7941 2.92175L16.3907 3.12599C19.5226 4.19804 21.0885 4.73406 21.4818 5.29434C21.875 5.85462 21.875 7.52003 21.875 10.8509C21.875 11.3539 21.875 11.8995 21.875 12.4912C21.875 18.3641 17.4594 21.2142 14.689 22.4244C13.9375 22.7527 13.5618 22.9168 12.5 22.9168C11.4382 22.9168 11.0625 22.7527 10.311 22.4244C7.54058 21.2142 3.125 18.3641 3.125 12.4912C3.125 11.8995 3.125 11.3539 3.125 10.8509Z" stroke="#292D32" stroke-width="2"/>
<path d="M12.5 8.3335V12.5002V8.3335Z" fill="#B0B1B3"/>
<path d="M12.5 8.3335V12.5002" stroke="#B0B1B3" stroke-width="2" stroke-linecap="round"/>
<path d="M12.7085 15.6255C12.7083 15.7403 12.6153 15.8333 12.5005 15.8335C12.3999 15.8335 12.316 15.7622 12.2964 15.6675L12.2915 15.6255C12.2915 15.5104 12.3854 15.4165 12.5005 15.4165L12.5425 15.4214C12.6372 15.441 12.7085 15.5249 12.7085 15.6255Z" fill="#B0B1B3" stroke="#B0B1B3" stroke-width="2.5"/>
</svg>
