<svg width="17" height="17" viewBox="0 0 17 17" fill="none" xmlns="http://www.w3.org/2000/svg">
<path d="M7.00078 9.99594L15.7569 1.24305M7.24967 10.3896L9.23513 14.3606C9.71496 15.3201 9.95484 15.8 10.2571 15.9286C10.5194 16.0403 10.8192 16.02 11.0642 15.8742C11.3464 15.7062 11.5197 15.1985 11.8664 14.1831L15.6178 3.1968C15.92 2.31213 16.0709 1.86979 15.9676 1.57717C15.8776 1.32261 15.6774 1.12237 15.4229 1.03243C15.1302 0.929049 14.6879 1.08009 13.8032 1.38217L2.81683 5.13362C1.8015 5.48031 1.29384 5.65366 1.12579 5.93589C0.979941 6.18081 0.959732 6.48063 1.07139 6.74287C1.20005 7.0451 1.67986 7.28506 2.63948 7.76481L6.61043 9.75035C6.76859 9.82941 6.84765 9.8689 6.91609 9.9217C6.97693 9.9686 7.03142 10.0231 7.07823 10.0838C7.13112 10.1524 7.17061 10.2314 7.24967 10.3896Z" stroke="#A1A1A1" stroke-linecap="round" stroke-linejoin="round"/>
</svg>
