<svg width="14" height="13" viewBox="0 0 14 13" fill="none" xmlns="http://www.w3.org/2000/svg">
<path fill-rule="evenodd" clip-rule="evenodd" d="M13.3859 3.24981C13.974 1.32526 12.1914 -0.488753 10.2611 0.11965L10.2599 0.120031L2.24358 2.60402C-0.0617126 3.32729 -0.0887166 6.59094 2.20834 7.36089L4.40026 8.09922L4.40185 8.09977C4.87554 8.2574 5.24973 8.62309 5.40531 9.09936L5.40677 9.10378L6.1461 11.291L6.14628 11.2917C6.91992 13.6067 10.1751 13.5501 10.8967 11.242L13.3859 3.24981ZM3.41691 6.15131C3.17956 6.07137 3.05197 5.81416 3.13192 5.57684C3.21187 5.33945 3.46909 5.21187 3.70644 5.29181L5.89747 6.02989L5.89825 6.03014C6.13485 6.10898 6.35663 6.22163 6.55701 6.36342C6.68592 6.45466 6.806 6.55799 6.91538 6.67215C7.1651 6.93275 7.35901 7.2494 7.47589 7.60614L8.21506 9.79283C8.29524 10.0301 8.1679 10.2875 7.93064 10.3677C7.69338 10.4478 7.43604 10.3206 7.35581 10.0833L6.61597 7.89449L6.61451 7.89008C6.54087 7.66455 6.41867 7.46465 6.26056 7.29971C6.19132 7.22745 6.11514 7.16185 6.03303 7.10374C5.90527 7.01329 5.76327 6.94109 5.61108 6.89042L3.41691 6.15131Z" fill="#002F6C"/>
</svg>
