<svg width="23" height="23" viewBox="0 0 23 23" fill="none" xmlns="http://www.w3.org/2000/svg">
<path d="M11.5 14.375C13.0878 14.375 14.375 13.0878 14.375 11.5C14.375 9.91218 13.0878 8.625 11.5 8.625C9.91218 8.625 8.625 9.91218 8.625 11.5C8.625 13.0878 9.91218 14.375 11.5 14.375Z" stroke="#B0B1B3" stroke-width="2"/>
<path d="M13.1921 2.06264C12.8398 1.91675 12.3933 1.91675 11.5002 1.91675C10.6072 1.91675 10.1607 1.91675 9.80838 2.06264C9.33877 2.25718 8.96564 2.6303 8.77111 3.09994C8.68231 3.31432 8.64755 3.56364 8.63395 3.92732C8.61397 4.46177 8.33989 4.95648 7.8767 5.22389C7.41354 5.49129 6.84808 5.48131 6.37524 5.23139C6.05349 5.06133 5.82019 4.96676 5.59012 4.93648C5.08613 4.87012 4.57644 5.00669 4.17315 5.31615C3.87068 5.54824 3.64742 5.93494 3.20089 6.70835C2.75437 7.48176 2.5311 7.86846 2.48134 8.24645C2.41499 8.75043 2.55156 9.26013 2.86102 9.66344C3.00226 9.84753 3.20077 10.0022 3.50886 10.1958C3.96178 10.4804 4.2532 10.9652 4.25317 11.5001C4.25314 12.0349 3.96173 12.5197 3.50885 12.8042C3.20072 12.9979 3.00218 13.1526 2.86092 13.3367C2.55147 13.74 2.4149 14.2496 2.48125 14.7536C2.53101 15.1316 2.75427 15.5184 3.2008 16.2917C3.64733 17.0651 3.87059 17.4519 4.17305 17.6839C4.57634 17.9934 5.08604 18.1299 5.59003 18.0636C5.82007 18.0333 6.05336 17.9387 6.37509 17.7687C6.84796 17.5188 7.41347 17.5088 7.87667 17.7762C8.33987 18.0437 8.61397 18.5384 8.63395 19.0729C8.64756 19.4365 8.68231 19.6859 8.77111 19.9003C8.96564 20.3698 9.33877 20.743 9.80838 20.9376C10.1607 21.0834 10.6072 21.0834 11.5002 21.0834C12.3933 21.0834 12.8398 21.0834 13.1921 20.9376C13.6616 20.743 14.0348 20.3698 14.2293 19.9003C14.3181 19.6859 14.3529 19.4365 14.3665 19.0728C14.3864 18.5384 14.6605 18.0437 15.1237 17.7762C15.5868 17.5087 16.1524 17.5188 16.6253 17.7687C16.947 17.9387 17.1803 18.0332 17.4103 18.0635C17.9142 18.1299 18.424 17.9934 18.8273 17.6839C19.1297 17.4518 19.353 17.0651 19.7995 16.2917C20.2461 15.5183 20.4694 15.1316 20.5191 14.7536C20.5854 14.2496 20.4489 13.7399 20.1394 13.3366C19.9981 13.1525 19.7996 12.9978 19.4915 12.8042C19.0387 12.5197 18.7472 12.0348 18.7472 11.5C18.7472 10.9651 19.0387 10.4805 19.4915 10.196C19.7997 10.0023 19.9982 9.84763 20.1395 9.66344C20.4489 9.2602 20.5855 8.7505 20.5192 8.24651C20.4695 7.86853 20.2462 7.48182 19.7996 6.70842C19.3531 5.93501 19.1298 5.5483 18.8274 5.31622C18.4241 5.00676 17.9143 4.87019 17.4104 4.93654C17.1804 4.96683 16.9471 5.06138 16.6253 5.23143C16.1525 5.48135 15.5869 5.49135 15.1238 5.22392C14.6605 4.9565 14.3864 4.46176 14.3665 3.92727C14.3529 3.56362 14.3181 3.31431 14.2293 3.09994C14.0348 2.6303 13.6616 2.25718 13.1921 2.06264Z" stroke="#292D32" stroke-width="2"/>
</svg>
