<svg width="18" height="18" viewBox="0 0 18 18" fill="none" xmlns="http://www.w3.org/2000/svg">
<path d="M6.14285 3.59661L6.43787 3.06754C7.57781 1.02252 8.14787 0 8.99999 0C9.85211 0 10.4222 1.02251 11.5621 3.06754L11.8571 3.59663C12.1809 4.17774 12.3429 4.46829 12.5955 4.66001C12.848 4.85173 13.1627 4.9229 13.7918 5.06523L14.3643 5.19481C16.5782 5.69569 17.685 5.94613 17.9483 6.79301C18.2117 7.63973 17.4571 8.52209 15.948 10.287L15.5574 10.7435C15.1286 11.2449 14.9142 11.4957 14.8178 11.806C14.7213 12.1161 14.7537 12.4508 14.8185 13.1198L14.8775 13.7289C15.1058 16.0835 15.2197 17.2609 14.5303 17.7842C13.8409 18.3076 12.8046 17.8304 10.7319 16.8761L10.1957 16.6291C9.60659 16.358 9.31211 16.2223 8.99999 16.2223C8.68787 16.2223 8.39339 16.358 7.80425 16.6291L7.26803 16.8761C5.19539 17.8304 4.15906 18.3076 3.46962 17.7842C2.78021 17.2609 2.89429 16.0835 3.12246 13.7289L3.18148 13.1198C3.24632 12.4508 3.27873 12.1161 3.18227 11.806C3.08581 11.4957 2.87138 11.2449 2.44253 10.7435L2.05209 10.287C0.542918 8.52209 -0.21166 7.63973 0.0516801 6.79301C0.31502 5.94613 1.42189 5.69568 3.63558 5.19481L4.20829 5.06523C4.83737 4.9229 5.1519 4.85173 5.40449 4.66001C5.65703 4.46829 5.81903 4.17774 6.14285 3.59661Z" fill="#F5D199"/>
</svg>
