<svg width="17" height="20" viewBox="0 0 17 20" fill="none" xmlns="http://www.w3.org/2000/svg">
<path d="M6.59174 7.98267V7.24226C6.33303 7.20157 6.07174 7.17927 5.80983 7.17555C3.27424 7.17017 1.02942 8.80257 0.267984 11.2053C-0.493454 13.608 0.405334 16.2237 2.48658 17.6622C1.72339 16.8508 1.21291 15.8372 1.01677 14.7439C0.820632 13.6505 0.947218 12.5242 1.38125 11.5007C1.81528 10.4773 2.53821 9.60054 3.46275 8.97629C4.3873 8.35203 5.47396 8.00697 6.59156 7.98276L6.59174 7.98267Z" fill="#25F4EE"/>
<path d="M6.73232 16.3696C8.14997 16.3678 9.31527 15.2583 9.37735 13.8512V1.29503H11.6863C11.6392 1.03266 11.6167 0.766504 11.6191 0.5H8.46097V13.044C8.40844 14.4581 7.24037 15.5783 5.81594 15.5807C5.39026 15.577 4.97153 15.4731 4.59424 15.2773C4.83877 15.6138 5.15991 15.8883 5.53147 16.078C5.90304 16.2679 6.31451 16.3678 6.73232 16.3696ZM15.999 5.55517V4.85728C15.1493 4.85761 14.3183 4.6085 13.6105 4.14123C14.231 4.85778 15.0693 5.35412 15.999 5.55517Z" fill="#25F4EE"/>
<path d="M13.6107 4.14115C12.9135 3.35244 12.5291 2.33852 12.5295 1.28882H11.6864C11.7953 1.86919 12.0221 2.42142 12.3529 2.91183C12.6838 3.40223 13.1117 3.82052 13.6107 4.14115ZM5.81 10.313C5.21873 10.316 4.64543 10.5153 4.18125 10.8791C3.71707 11.243 3.38867 11.7506 3.24823 12.3212C3.10779 12.8918 3.16339 13.4927 3.40618 14.0283C3.64898 14.5639 4.06504 15.0035 4.58822 15.2772C4.30216 14.8848 4.13088 14.4215 4.09325 13.9385C4.05564 13.4555 4.15315 12.9715 4.37502 12.5401C4.5969 12.1087 4.9345 11.7466 5.35053 11.4939C5.76655 11.2412 6.24483 11.1076 6.73247 11.108C6.99758 11.1114 7.26084 11.1524 7.51429 11.2297V8.03724C7.25545 7.99868 6.99419 7.97842 6.73247 7.97657H6.5919V10.404C6.3371 10.3361 6.0737 10.3055 5.81 10.313Z" fill="#FE2C55"/>
<path d="M15.9992 5.55518V7.98269C14.4261 7.97964 12.8938 7.48494 11.6193 6.56865V12.9469C11.6126 16.1295 9.01363 18.7061 5.81006 18.7061C4.62028 18.7082 3.45914 18.3435 2.48682 17.6623C3.27968 18.5095 4.31098 19.0998 5.4464 19.3564C6.58181 19.6131 7.76869 19.5241 8.85247 19.101C9.93623 18.678 10.8666 17.9405 11.5225 16.9846C12.1784 16.0288 12.5293 14.8988 12.5296 13.7421V7.38192C13.8082 8.29217 15.3425 8.78041 16.9155 8.77772V5.65205C16.6075 5.65114 16.3004 5.61868 15.9992 5.55518Z" fill="#FE2C55"/>
<path d="M11.6189 12.9468V6.56859C12.8972 7.47966 14.4316 7.96799 16.0049 7.96439V5.53695C15.0755 5.34195 14.2351 4.85207 13.6103 4.14115C13.1114 3.82052 12.6835 3.40223 12.3526 2.91183C12.0218 2.42142 11.795 1.86919 11.6861 1.28882H9.37717V13.8512C9.35468 14.398 9.16131 14.9244 8.8239 15.3569C8.48649 15.7895 8.02182 16.107 7.49445 16.2652C6.96707 16.4232 6.40321 16.4144 5.88121 16.2394C5.35921 16.0646 4.905 15.7325 4.58171 15.2894C4.05844 15.0158 3.6423 14.5762 3.39944 14.0406C3.15658 13.5049 3.10096 12.904 3.24139 12.3333C3.38184 11.7627 3.7103 11.255 4.17455 10.8911C4.63879 10.5273 5.21217 10.328 5.80349 10.3251C6.06869 10.3275 6.33212 10.3684 6.5854 10.4465V8.019C5.46179 8.03793 4.36799 8.38124 3.43738 9.00707C2.50677 9.63289 1.77954 10.5142 1.34438 11.5435C0.909221 12.5729 0.784921 13.7057 0.986639 14.804C1.18836 15.9023 1.70738 16.9186 2.48042 17.7288C3.46229 18.3876 4.62507 18.729 5.80967 18.706C9.01324 18.706 11.6122 16.1294 11.6189 12.9468Z" fill="black"/>
</svg>
