<svg width="19" height="16" viewBox="0 0 19 16" fill="none" xmlns="http://www.w3.org/2000/svg">
<path d="M16.9133 4.02274C16.9248 4.19294 16.9248 4.36312 16.9248 4.53489C16.9248 9.76862 13.0536 15.8047 5.97506 15.8047V15.8015C3.88405 15.8047 1.83646 15.1882 0.0761719 14.0259C0.380222 14.0635 0.685797 14.0823 0.992135 14.0831C2.72499 14.0847 4.40832 13.4862 5.7716 12.3843C4.12485 12.3521 2.6808 11.2471 2.17633 9.63371C2.75319 9.74823 3.34758 9.7247 3.91377 9.56548C2.11842 9.19215 0.826773 7.56861 0.826773 5.68312C0.826773 5.66587 0.826773 5.6494 0.826773 5.63294C1.36172 5.9396 1.96068 6.10979 2.57335 6.12861C0.882402 4.96548 0.361172 2.65019 1.3823 0.839991C3.33615 3.3145 6.21891 4.81881 9.31353 4.97804C9.00337 3.60235 9.42707 2.16078 10.4268 1.19371C11.9769 -0.305891 14.4146 -0.229029 15.8715 1.36548C16.7335 1.19058 17.5595 0.865089 18.3154 0.403912C18.0282 1.32078 17.4268 2.0996 16.6237 2.5945C17.3865 2.50195 18.1318 2.29176 18.8336 1.97097C18.3169 2.76784 17.6662 3.46195 16.9133 4.02274Z" fill="#1D9BF0"/>
</svg>
