<svg width="27" height="8" viewBox="0 0 27 8" fill="none" xmlns="http://www.w3.org/2000/svg">
<path d="M0.0279097 -3.05176e-05L0 0.166653C0.86365 0.375648 1.63501 0.678139 2.31035 1.05443L4.24892 7.99997L6.56047 7.99741L10 -3.05176e-05H7.68557L5.54668 5.46414L5.31884 4.35364C5.30817 4.31933 5.29657 4.28496 5.2847 4.25051L4.54113 0.676456C4.40892 0.169071 4.02536 0.0176518 3.55085 -3.05176e-05H0.0279097Z" fill="#0E4595"/>
<path d="M10 7.99997L11.1541 -3.05176e-05H13L11.8451 7.99997H10Z" fill="#0E4595"/>
<path d="M19 0.32548C18.6039 0.168466 17.9831 -3.05176e-05 17.2079 -3.05176e-05C15.2321 -3.05176e-05 13.8404 1.05113 13.8285 2.55766C13.8174 3.67129 14.8221 4.29254 15.5806 4.66326C16.3589 5.04321 16.6205 5.28546 16.6168 5.62463C16.6118 6.14418 15.9952 6.38144 15.4205 6.38144C14.6202 6.38144 14.195 6.26398 13.5383 5.97469L13.2806 5.85149L13 7.58645C13.467 7.80285 14.3306 7.99023 15.2274 7.99997C17.3293 7.99997 18.6938 6.9608 18.7094 5.35202C18.7168 4.47034 18.1841 3.79944 17.0305 3.24629C16.3316 2.88776 15.9035 2.64852 15.9081 2.28547C15.9081 1.96333 16.2704 1.61885 17.0533 1.61885C17.7071 1.60813 18.1808 1.75877 18.5498 1.91578L18.729 2.00522L19 0.32548Z" fill="#0E4595"/>
<path d="M25.1968 -3.05176e-05H23.4753C22.942 -3.05176e-05 22.5429 0.14252 22.3087 0.663814L19 7.99997H21.3395C21.3395 7.99997 21.7219 7.01361 21.8084 6.797C22.0641 6.797 24.3368 6.80044 24.6617 6.80044C24.7283 7.08071 24.9327 7.99997 24.9327 7.99997H27L25.1968 -3.05176e-05ZM22.4654 5.16908C22.6497 4.70786 23.3531 2.93129 23.3531 2.93129C23.34 2.9526 23.536 2.46782 23.6484 2.16726L23.799 2.85744C23.799 2.85744 24.2256 4.76829 24.3148 5.16896H22.4654V5.16908Z" fill="#0E4595"/>
</svg>
