<svg width="30" height="30" viewBox="0 0 30 30" fill="none" xmlns="http://www.w3.org/2000/svg">
<path d="M15.0004 17.8571C16.779 17.8571 18.2147 16.4214 18.2147 14.6429V8.21429C18.2147 6.43571 16.779 5 15.0004 5C13.2218 5 11.7861 6.43571 11.7861 8.21429V14.6429C11.7861 16.4214 13.2218 17.8571 15.0004 17.8571Z" fill="#002F6C"/>
<path d="M20.6786 14.6428H22.5C22.5 18.2963 19.5857 21.3178 16.0714 21.8428V25.3571H13.9286V21.8428C10.4143 21.3178 7.5 18.2963 7.5 14.6428H9.32142C9.32142 17.8571 12.0429 20.1071 15 20.1071C17.9571 20.1071 20.6786 17.8571 20.6786 14.6428Z" fill="#002F6C"/>
</svg>
