<svg width="18" height="20" viewBox="0 0 18 20" fill="none" xmlns="http://www.w3.org/2000/svg">
<g clip-path="url(#clip0_289_1363)">
<path fill-rule="evenodd" clip-rule="evenodd" d="M8.99739 0.5C4.03585 0.5 0 4.76125 0 9.99992C0 12.0775 0.634741 14.0043 1.71375 15.5682L0.592346 19.0978L4.05167 17.9307C5.47447 18.9249 7.17241 19.5 9.00261 19.5C13.9642 19.5 18 15.2386 18 10.0001C18 4.76142 13.9642 0.500157 9.00261 0.500157L8.99739 0.5ZM6.48482 5.32554C6.31031 4.88436 6.17804 4.86765 5.91367 4.85631C5.82365 4.85079 5.72333 4.84528 5.61211 4.84528C5.26817 4.84528 4.90855 4.95135 4.69164 5.18589C4.42726 5.47071 3.77131 6.13523 3.77131 7.49802C3.77131 8.8608 4.71284 10.1788 4.83973 10.3632C4.97199 10.5473 6.67529 13.3845 9.31998 14.5408C11.3881 15.4455 12.0018 15.3617 12.4725 15.2556C13.1601 15.0992 14.0224 14.5629 14.2393 13.9152C14.4562 13.2672 14.4562 12.7143 14.3926 12.597C14.3291 12.4798 14.1545 12.4129 13.8901 12.2731C13.6257 12.1335 12.3403 11.4633 12.0969 11.3739C11.8588 11.279 11.6315 11.3126 11.4517 11.5807C11.1978 11.9549 10.9493 12.3348 10.7482 12.5636C10.5895 12.7424 10.3302 12.7647 10.1134 12.6697C9.82247 12.5414 9.00799 12.2395 8.00288 11.2957C7.22527 10.5642 6.69636 9.65394 6.54305 9.38031C6.38958 9.10117 6.5272 8.93898 6.64872 8.78829C6.78098 8.61507 6.90789 8.49228 7.04015 8.33025C7.17242 8.16837 7.24647 8.08452 7.33111 7.89459C7.42113 7.71033 7.35752 7.5204 7.29408 7.38074C7.23063 7.24109 6.70172 5.87831 6.48482 5.32554Z" fill="#67C15E"/>
</g>
<defs>
<clipPath id="clip0_289_1363">
<rect width="18" height="19" fill="white" transform="translate(0 0.5)"/>
</clipPath>
</defs>
</svg>
