<svg width="14" height="14" viewBox="0 0 14 14" fill="none" xmlns="http://www.w3.org/2000/svg">
<path d="M9.91667 12.2501L4.08333 12.25M9.91667 12.2501L10.3851 12.25C11.0373 12.25 11.3633 12.25 11.6126 12.1229C11.8322 12.0111 12.0111 11.8325 12.1229 11.613C12.25 11.3637 12.25 11.0373 12.25 10.3851V5.37807C12.25 5.11625 12.25 4.98471 12.2221 4.85978C12.1972 4.74833 12.1563 4.6413 12.1002 4.5418C12.038 4.43143 11.9507 4.33449 11.7792 4.14387L10.172 2.35807C9.97319 2.13718 9.87245 2.02522 9.75147 1.94482C9.64268 1.8725 9.52245 1.81917 9.39592 1.78667C9.25312 1.75 9.09988 1.75 8.79375 1.75H3.61678C2.96339 1.75 2.63645 1.75 2.38688 1.87716C2.16736 1.98901 1.98901 2.16736 1.87716 2.38688C1.75 2.63645 1.75 2.96339 1.75 3.61678V10.3834C1.75 11.0368 1.75 11.3631 1.87716 11.6126C1.98901 11.8322 2.16736 12.0111 2.38688 12.1229C2.6362 12.25 2.96274 12.25 3.61486 12.25H4.08333M9.91667 12.2501V10.0315C9.91667 9.37942 9.91667 9.05287 9.78962 8.80355C9.67779 8.58404 9.49882 8.40566 9.27932 8.29383C9.02977 8.16667 8.70351 8.16667 8.05012 8.16667H5.95012C5.29672 8.16667 4.96978 8.16667 4.72022 8.29383C4.50069 8.40566 4.32234 8.58404 4.21049 8.80355C4.08333 9.0531 4.08333 9.38006 4.08333 10.0334V12.25M8.75 4.08333H5.25" stroke="white" stroke-linecap="round" stroke-linejoin="round"/>
</svg>
