<svg width="150" height="75" viewBox="0 0 150 75" fill="none" xmlns="http://www.w3.org/2000/svg">
<path d="M69.6103 38.8613L67.1118 42.4401C65.6186 44.1937 63.4998 47.5532 60.4089 46.3997C57.5516 45.3337 57.5503 40.6494 57.629 38.409L56.4271 40.8331C55.5828 42.2293 54.3808 44.8888 52.0101 43.9916C51.1265 43.6576 50.5943 42.6927 50.3227 41.9274C49.7144 40.2058 49.943 38.1182 50.2564 36.3657L47.0217 40.4424C45.7497 41.7647 44.3045 42.9392 42.1562 42.8394C38.151 42.6533 37.0879 38.5027 37.6188 35.6842C37.0424 35.7286 36.4194 35.8876 35.8479 35.9159C35.4276 35.9369 33.8533 35.7767 33.7537 35.805C33.6468 35.8358 33.5903 35.8999 33.5644 35.9911C33.2769 37.0226 33.0335 38.0738 32.682 39.0893C31.9987 41.0697 29.7276 46.3097 27.0214 46.5821C22.629 47.0233 20.9183 41.9188 20.7671 38.9759L18.5267 42.0938C17.6775 42.9367 16.655 43.6675 15.3252 43.0464C13.2421 42.0728 13.542 38.2845 13.8111 36.5518C14.3974 32.7697 16.4141 29.043 16.6869 25.2954C16.7877 23.904 16.7877 22.9526 15.2798 22.1972C9.3426 19.2223 5.8265 28.0374 4.90477 31.5952C2.33253 41.5306 6.84778 53.4821 17.3899 58.6346C26.4659 63.0711 39.0813 62.9417 48.9696 60.8529C61.8542 58.1318 77.9489 50.1202 91.1726 53.9282C97.0717 55.6276 101.133 60.2774 98.8734 65.7429C98.2036 67.3647 96.4707 69.4314 94.465 69.8874C93.8321 70.0316 92.4839 70.0168 92.0821 70.2164C91.6445 70.4333 90.9895 71.1653 90.3922 71.4845C89.9092 71.7421 87.0654 72.7723 86.7237 72.4642C86.6156 71.8173 86.8651 72.1032 87.3431 71.922C87.6516 71.8049 90.9145 70.2374 90.4094 69.8553C87.2682 69.6088 84.4501 66.8976 84.8926 64.1322C85.1728 62.3798 87.5631 62.4205 89.0932 62.8173C88.9408 60.9231 91.7158 59.8719 93.2975 61.0648C95.1631 62.4734 94.293 67.1034 93.0443 68.777C95.3548 68.7708 96.5998 66.1545 96.8247 64.4304C97.4072 59.9804 94.0214 56.2759 89.194 55.0669C79.345 52.5997 63.7382 59.0401 53.8671 61.331C34.5415 65.8156 8.82889 64.3319 1.51034 45.309C-1.21798 38.2192 -0.373673 29.5396 5.04733 23.5466C10.1832 17.8691 20.4685 18.8415 19.9769 27.1119C19.8847 28.6696 19.3796 30.3653 18.9138 31.8713C18.2146 34.1388 15.6681 39.6944 16.0872 41.7068C16.1142 41.8387 16.2617 42.3501 16.4866 42.2675C17.4661 41.9089 19.3047 38.3486 19.7754 37.3837C20.4267 36.0453 20.9109 34.6638 21.4984 33.307C22.4693 32.7487 24.3938 33.2984 24.5733 34.3902C24.851 36.0798 24.4344 38.0183 24.4492 39.7202C24.4602 41.1091 24.7822 43.5936 25.5061 44.8247C26.1242 45.8759 26.4757 45.5986 27.3471 44.821C29.0148 43.3323 30.3261 40.5521 31.0389 38.5828C31.2626 37.9666 31.952 36.1291 31.9311 35.6017C31.9189 35.2763 31.2011 35.1937 30.9185 35.0483C26.6257 32.8399 25.2861 27.33 27.8202 23.6612C29.6158 21.0622 32.8332 21.8263 33.8041 24.5005C35.0159 27.8377 34.3178 31.7271 33.7992 35.1186C34.5734 35.243 37.3141 35.2307 37.8228 34.7846C37.9937 34.6355 38.4509 33.1727 38.6475 32.7709C39.627 30.7769 41.4987 28.6573 44.0611 28.131C45.3048 27.8759 47.7554 28.0016 48.0074 29.3918C48.3748 31.4153 45.3085 33.9429 43.2733 34.6034C42.0862 34.9892 42.1329 34.4395 41.6622 35.7113C41.1251 37.1631 40.4541 40.0739 41.275 41.4406C41.6953 42.1406 42.2681 42.1431 43.073 41.9225C45.3073 41.31 48.2187 37.1865 49.5891 35.4834C51.0601 33.6545 53.7651 29.1724 56.4074 28.7867C57.602 28.6117 58.1316 28.7879 59.1394 29.2168C59.2623 29.2685 59.239 29.409 59.4036 29.2143C60.4667 26.0299 61.601 22.8614 63.1164 19.815C64.3662 17.3047 67.478 11.9328 70.3526 10.73C72.1911 9.96101 74.5335 10.3393 74.7449 12.3518C75.1874 16.564 69.6791 22.981 66.5133 26.0373C65.7083 26.8136 64.2814 27.786 63.6264 28.5427C62.9062 29.3757 61.7485 34.7735 61.4781 36.1131C61.0529 38.218 60.0046 43.5837 61.0787 45.3645C61.4314 45.9499 61.7227 45.7157 62.2758 45.4286C64.8369 44.0951 68.3739 38.7725 69.6963 36.3879C71.2792 33.5325 72.9875 27.3694 78.0656 28.1064C78.6076 28.1853 78.9837 28.518 79.4789 28.6474C80.3662 25.9042 81.5104 23.1227 82.9213 20.5471C83.929 18.7071 87.2153 13.3956 89.6942 13.106C93.0357 12.7141 92.6965 15.2972 92.1079 17.2295C91.1505 20.3745 88.4332 23.9151 85.9986 26.3786C85.3276 27.0577 82.7542 29.0294 82.4678 29.4731C81.8754 30.3912 81.1245 33.7839 80.8382 34.983C80.2704 37.3603 79.0918 42.3587 79.914 44.5647C80.0934 45.0478 80.2483 45.3854 80.8959 45.1353C82.1089 44.667 84.5976 41.0845 85.2969 39.9618C86.9916 37.2382 87.0519 34.6564 88.4111 31.8627C88.8105 31.0394 89.838 28.9875 90.8973 28.7842C93.4782 28.2876 92.7457 29.9377 92.2898 31.2341C91.4799 33.535 88.416 39.3394 89.5541 41.4751C89.8699 42.0679 90.2312 41.7549 90.7154 41.4566C93.0775 39.9988 96.6194 33.938 98.0266 31.5275C98.2785 31.0949 99.4129 28.7349 99.7226 28.6499C100.915 28.327 102.417 28.8409 102.394 30.0622C102.349 32.4628 100.359 36.4273 99.6353 38.9303C99.4756 39.4849 99.2556 40.1183 99.2961 40.6815C101.309 37.6141 102.487 34.1955 104.573 31.1553C105.301 30.0942 107.637 27.0835 108.877 26.6941C109.891 26.3762 111.458 26.6115 111.608 27.6812C111.849 29.4028 110.037 33.2971 109.563 35.232C109.139 36.9597 108.73 38.9525 109.627 40.6285C110.527 42.3107 111.783 41.5848 113.08 40.6766C114.142 39.9334 116.956 36.786 117.495 35.715C118.557 33.604 118.619 31.8639 120.238 29.6801C122.138 27.1168 125.404 25.1869 128.171 28.1557L128.717 29.3289C128.937 28.6178 129.803 26.3589 130.432 25.983C131.017 25.6343 132.548 25.8549 132.743 26.4871C132.115 29.1958 130.975 31.7826 130.451 34.5135C129.904 37.3578 129.884 40.1972 129.641 43.0661C135.559 39.0239 142.08 35.0163 145.235 28.8717C148.909 21.7153 147.809 11.9476 139.421 7.66881C135.095 5.46164 130.361 5.45301 125.688 6.85421C126.139 7.99662 126.668 9.11931 126.858 10.3283C127.303 13.1504 125.848 20.1983 121.431 20.0911C119.176 20.0356 121.635 18.8809 122.087 18.505C124.878 16.1882 124.679 10.7115 123.108 7.86475C116.341 10.3307 110.753 15.6965 103.226 16.601C95.4445 17.5364 93.0382 11.2833 96.44 6.09384C98.3695 3.15095 101.793 1.48479 105.542 0.773709C112.129 -0.475912 119.943 0.666493 124.468 5.24474C134.938 2.77507 146.33 6.77904 149.247 16.2227C152.235 25.8992 145.867 33.8061 137.731 39.6562C135.555 41.2213 131.902 43.1364 130.1 44.7692C129.903 44.9479 129.77 45.1661 129.61 45.3682C129.16 51.0358 129.101 56.7663 127.865 62.3675C127.059 66.019 125.366 70.7007 121.729 72.9695C117.459 75.6327 112.124 74.2241 111.62 69.445C110.803 61.6946 117.13 53.5721 123.053 48.2273C124.065 47.3141 125.299 46.5513 126.116 45.5321C126.308 42.4536 126.319 39.3296 126.743 36.2536L124.684 39.6426C122.681 43.6318 117.478 42.7186 117.333 38.4115C115.302 40.9008 112.079 44.2258 108.325 41.7499C105.323 39.7695 106.417 34.9251 107.244 32.209L108.381 28.8754C106.554 30.5403 105.184 32.628 104.079 34.702C103.158 36.4323 101.207 41.7734 99.6194 42.6631C98.4088 43.3422 96.8308 42.8332 96.5248 41.5959C96.0111 39.5218 96.6883 37.2715 97.1233 35.2332L93.9169 39.788C92.3832 41.7401 90.1685 44.0483 87.5914 41.5799L86.7262 40.0012C85.8352 41.432 84.8962 43.1265 83.7508 44.418C82.9164 45.3596 81.9701 46.1852 80.4756 46.1335C77.0505 46.0139 76.962 41.5947 77.1119 39.4331L75.4024 42.3279C74.375 43.7735 72.7478 44.9085 70.9867 43.4099C70.4324 42.9379 69.609 41.3926 69.609 40.7382V38.865L69.6103 38.8613ZM122.005 6.05194C118.077 0.853813 109.036 0.518609 103.001 2.89092C98.9225 4.49423 95.4347 8.91227 96.9562 12.8398C97.4846 14.2028 98.9631 15.6878 100.746 15.7026C105.372 15.7408 112.191 10.6499 116.174 8.57337C118.034 7.60349 119.995 6.76671 122.006 6.05317L122.005 6.05194ZM63.9508 27.0552C65.7673 25.3792 67.446 23.5503 68.9282 21.6426C70.7385 19.3098 73.8195 15.0137 73.2652 12.1546C73.0686 11.1404 72.5733 11.1404 71.7253 11.6814C70.4853 12.4726 68.9417 15.0618 68.2719 16.3102C66.4272 19.7448 65.1884 23.432 63.9508 27.0564V27.0552ZM90.5028 13.9046C89.5332 14.1449 87.2829 17.8703 86.7925 18.77C85.8426 20.5113 84.9331 22.557 84.2179 24.3834C83.9143 25.1598 83.2384 26.6892 83.129 27.4212C83.0282 28.0965 83.8995 27.1858 84.1589 26.9443C86.7987 24.4746 90.8973 19.1261 91.1984 15.7593C91.2414 15.2713 91.3791 13.6889 90.5028 13.9058V13.9046ZM32.2212 34.548C32.6476 31.4128 33.2707 27.8722 32.1253 24.811C31.9004 24.2109 31.6485 23.6428 31.1028 23.1966C30.3531 23.7586 29.8026 24.7371 29.4941 25.5542C28.5257 28.1286 28.8464 31.9095 31.0954 33.933C31.2564 34.0785 32.0196 34.7168 32.2212 34.548ZM120.589 41.1042C120.673 41.1794 120.874 41.2287 120.996 41.2151C122.033 41.1017 123.544 38.6321 124.049 37.8409C124.792 36.6751 126.729 33.6385 127.08 32.5072C127.434 31.3635 127.394 28.7854 126.287 27.961C125.81 27.6061 125.599 27.733 125.162 28.0177C122.808 29.5557 120.073 37.0842 120.16 39.5933C120.169 39.8484 120.415 40.9477 120.589 41.103V41.1042ZM78.524 29.1342C78.03 28.7941 77.563 29.1293 77.1943 29.4509C74.9403 31.4215 72.0682 39.597 72.3767 42.3218C72.4222 42.7284 72.5119 43.4666 73.033 43.2313C74.1022 42.7482 76.2799 38.8181 76.785 37.725C77.9022 35.3071 78.0546 32.6464 78.9456 30.162C79.0721 29.8403 78.8079 29.3277 78.524 29.133V29.1342ZM42.4917 33.8665C44.1988 33.4968 46.948 31.0949 46.5412 29.5212C46.2622 28.4391 44.9054 29.727 44.5392 30.1275C44.173 30.528 42.2521 33.6089 42.4917 33.8665ZM52.8913 43.1758C53.1199 43.2263 53.1543 43.0945 53.2858 43.007C54.7765 42.0186 57.7544 35.2862 58.3246 33.5029C58.4831 33.0075 58.9587 31.2847 58.9366 30.8681C58.912 30.406 58.3578 29.3646 57.7163 29.6826C56.019 30.5255 54.3046 34.0674 53.743 35.6818C52.9282 38.0257 52.3088 40.7591 52.8913 43.177V43.1758ZM120.877 52.4186C116.821 56.685 111.991 63.8475 112.938 69.5559C113.612 73.6276 117.151 74.8723 120.691 71.954C125.508 67.9834 125.697 58.2144 125.961 52.7722C126.041 51.1307 125.992 49.4707 126.087 47.8292C124.195 49.1639 122.432 50.7832 120.877 52.4173V52.4186ZM91.3115 68.8127C91.4762 68.7253 91.9923 67.0837 92.0612 66.7929C92.3893 65.3942 92.5061 64.0718 92.0833 62.6793C91.9641 62.2861 91.8178 61.5393 91.2648 61.5553C90.858 61.5516 90.3283 63.0219 90.2927 63.3386C90.198 64.1901 91.4639 65.7466 89.9535 65.8871C88.6741 66.0066 88.6348 65.1662 88.0707 64.4354C87.7106 63.9671 87.2153 63.1389 86.9204 64.0607C86.344 65.86 87.8495 67.8552 89.7544 68.5465C90.0788 68.6636 91.0325 68.9606 91.3115 68.8127Z" fill="#002F6C"/>
<path d="M93.418 27.8319C93.0739 28.018 91.7577 27.827 91.5315 27.3944C91.3128 26.9754 91.7134 24.682 92.0612 24.3357C92.7187 23.6788 95.7187 23.8588 95.4901 25.0196C95.42 25.3758 94.062 26.8214 93.7253 27.2465C93.6171 27.3833 93.4537 27.8134 93.418 27.8331V27.8319Z" fill="#002F6C"/>
<path d="M13.6404 10.9138V2.27002H17.3384V3.32493H14.9984V5.98068H17.0213V7.02203H14.9984V10.9138H13.6392H13.6404Z" fill="#FF736C"/>
<path d="M18.0327 10.9138V2.27002H20.8249C22.2284 2.27002 22.7274 2.90839 22.7274 4.0015V5.1858C22.7274 5.97945 22.3501 6.44898 21.7012 6.59193V6.64369C22.4103 6.76077 22.7581 7.17731 22.7581 8.03627V10.9138H21.4296V7.94631C21.4296 7.38681 21.233 7.15266 20.5841 7.15266H19.3612V10.9151H18.0327V10.9138ZM21.4149 4.13213C21.4149 3.59851 21.158 3.32493 20.5238 3.32493H19.3612V6.17539H20.5386C21.0818 6.17539 21.4136 5.9548 21.4136 5.29055V4.13213H21.4149Z" fill="#FF736C"/>
<path d="M27.1972 10.9138L26.8052 8.88291H24.9629L24.6004 10.9138H23.2866L24.9924 2.27002H26.8187L28.5245 10.9138H27.196H27.1972ZM25.1436 7.88099H26.6233L25.9142 4.09269H25.8539L25.1448 7.88099H25.1436Z" fill="#FF736C"/>
<path d="M32.6317 10.9138L30.3372 4.22209H30.277C30.3077 4.86046 30.3225 5.47171 30.3225 6.04476V10.9138H29.1304V2.27002H30.9112L33.009 8.47992H33.0692C33.0385 7.65916 33.0238 6.95672 33.0238 6.38366V2.27002H34.2159V10.9138H32.6305H32.6317Z" fill="#FF736C"/>
<path d="M38.4278 7.38681H39.7108V8.83238C39.7108 10.278 38.9108 10.994 37.4016 10.994C35.8924 10.994 35.0469 10.2126 35.0469 8.8065V4.35396C35.0469 2.90839 35.8469 2.19238 37.3561 2.19238C38.8653 2.19238 39.7108 2.90839 39.7108 4.3404V5.36943H38.4278V4.3404C38.4278 3.66383 38.08 3.28549 37.4016 3.28549C36.7232 3.28549 36.3901 3.65027 36.3901 4.32684V8.89647C36.3901 9.56071 36.6925 9.91194 37.4016 9.91194C38.1107 9.91194 38.4278 9.58659 38.4278 8.89647V7.38681Z" fill="#FF736C"/>
<path d="M40.5269 10.9138V2.27002H44.1499V3.32493H41.8554V5.85005H43.9532V6.91728H41.8554V9.85894H44.2703V10.9138H40.5269Z" fill="#FF736C"/>
<path d="M38.5518 19.077H39.8349V20.5226C39.8349 21.9681 39.0348 22.6841 37.5256 22.6841C36.0164 22.6841 35.1709 21.9028 35.1709 20.4967V16.0441C35.1709 14.5986 35.971 13.8826 37.4801 13.8826C38.9893 13.8826 39.8349 14.5986 39.8349 16.0306V17.0596H38.5518V16.0306C38.5518 15.354 38.204 14.9757 37.5256 14.9757C36.8472 14.9757 36.5142 15.3405 36.5142 16.017V20.5867C36.5142 21.2509 36.8165 21.6021 37.5256 21.6021C38.2347 21.6021 38.5518 21.2768 38.5518 20.5867V19.077Z" fill="#FF736C"/>
<path d="M44.0465 13.9614H45.3751V20.4967C45.3751 21.9028 44.575 22.6841 43.0203 22.6841C41.4657 22.6841 40.6509 21.9681 40.6509 20.5226V13.9614H41.9794V20.5879C41.9794 21.278 42.3419 21.6033 43.0056 21.6033C43.6692 21.6033 44.0478 21.2521 44.0478 20.5743V13.9614H44.0465Z" fill="#FF736C"/>
<path d="M46.2061 22.6053V13.9614H48.9381C50.3268 13.9614 50.8405 14.5998 50.8405 15.6929V16.5777C50.8405 17.3714 50.5234 17.8532 49.8291 17.9962V18.048C50.5837 18.165 50.9769 18.5557 50.9769 19.48V21.1203C50.9769 22.1098 50.4792 22.604 49.1347 22.604H46.2061V22.6053ZM49.5722 15.8617C49.5722 15.2764 49.3608 14.9769 48.6812 14.9769H47.5346V17.5809H48.6972C49.2256 17.5809 49.5722 17.3591 49.5722 16.696V15.863V15.8617ZM49.6324 19.4023C49.6324 18.8034 49.3608 18.5557 48.6812 18.5557H47.5346V21.5886H48.7267C49.3608 21.5886 49.6324 21.315 49.6324 20.7555V19.4011V19.4023Z" fill="#FF736C"/>
<path d="M55.2329 22.6053L54.8408 20.5743H52.9986L52.636 22.6053H51.3223L53.0281 13.9614H54.8543L56.5602 22.6053H55.2316H55.2329ZM53.1805 19.5724H54.6602L53.951 15.7841H53.8908L53.1817 19.5724H53.1805Z" fill="#FF736C"/>
</svg>
