<svg width="101" height="50" viewBox="0 0 101 50" fill="none" xmlns="http://www.w3.org/2000/svg">
<path d="M46.9067 26.0352L45.241 28.4049C44.2455 29.5661 42.833 31.7906 40.7725 31.0268C38.8675 30.321 38.8667 27.2192 38.9192 25.7357L38.1179 27.3408C37.555 28.2654 36.7537 30.0264 35.1733 29.4323C34.5842 29.2112 34.2294 28.5722 34.0483 28.0655C33.6428 26.9255 33.7952 25.5431 34.0041 24.3827L31.8476 27.0821C30.9997 27.9577 30.0361 28.7354 28.604 28.6693C25.9338 28.5461 25.2251 25.7977 25.5791 23.9315C25.1948 23.9608 24.7794 24.0661 24.3984 24.0849C24.1182 24.0987 23.0687 23.9927 23.0023 24.0114C22.931 24.0318 22.8933 24.0743 22.8761 24.1346C22.6844 24.8177 22.5222 25.5137 22.2879 26.1861C21.8323 27.4975 20.3182 30.9672 18.5141 31.1476C15.5859 31.4397 14.4454 28.0597 14.3446 26.1111L12.851 28.1756C12.2848 28.7338 11.6032 29.2177 10.7167 28.8064C9.32793 28.1617 9.52784 25.6533 9.70727 24.5059C10.0981 22.0016 11.4426 19.5339 11.6245 17.0523C11.6917 16.131 11.6917 15.5011 10.6864 15.0009C6.72824 13.031 4.38417 18.868 3.76968 21.2239C2.05486 27.8027 5.06502 35.7165 12.0931 39.1283C18.1438 42.066 26.554 41.9804 33.1463 40.5972C41.736 38.7954 52.4657 33.4904 61.2816 36.0119C65.2143 37.1372 67.9221 40.2161 66.4154 43.8352C65.9689 44.9091 64.8137 46.2776 63.4765 46.5795C63.0546 46.675 62.1558 46.6652 61.8879 46.7974C61.5962 46.941 61.1595 47.4257 60.7613 47.6371C60.4393 47.8076 58.5434 48.4898 58.3157 48.2858C58.2436 47.8574 58.4099 48.0467 58.7286 47.9267C58.9342 47.8492 61.1095 46.8112 60.7728 46.5583C58.6786 46.3951 56.7999 44.5998 57.0949 42.7686C57.2817 41.6082 58.8752 41.6352 59.8953 41.8979C59.7937 40.6437 61.6437 39.9476 62.6982 40.7375C63.9419 41.6703 63.3618 44.7361 62.5294 45.8442C64.0697 45.8402 64.8997 44.1077 65.0496 42.9661C65.438 40.0194 63.1808 37.5665 59.9625 36.7659C53.3965 35.1323 42.992 39.3968 36.4112 40.9138C23.5275 43.8833 6.38576 42.9008 1.50673 30.3046C-0.312148 25.61 0.250722 19.8627 3.86473 15.8944C7.28865 12.135 14.1455 12.7788 13.8178 18.2552C13.7563 19.2866 13.4196 20.4095 13.1091 21.4067C12.6429 22.9082 10.9453 26.5868 11.2246 27.9194C11.2427 28.0067 11.341 28.3454 11.4909 28.2907C12.1439 28.0532 13.3696 25.6957 13.6834 25.0568C14.1176 24.1706 14.4405 23.2558 14.8321 22.3573C15.4794 21.9877 16.7624 22.3516 16.882 23.0746C17.0672 24.1934 16.7894 25.477 16.7993 26.6039C16.8066 27.5236 17.0213 29.1687 17.5039 29.9839C17.916 30.68 18.1503 30.4964 18.7312 29.9815C19.843 28.9957 20.7172 27.1548 21.1924 25.8508C21.3416 25.4427 21.8012 24.226 21.7873 23.8768C21.7791 23.6614 21.3006 23.6067 21.1122 23.5104C18.2503 22.0481 17.3572 18.3996 19.0467 15.9703C20.2437 14.2493 22.3886 14.7552 23.0359 16.526C23.8438 18.7358 23.3784 21.3112 23.0326 23.5569C23.5488 23.6393 25.3759 23.6312 25.7151 23.3358C25.829 23.237 26.1337 22.2684 26.2648 22.0024C26.9178 20.682 28.1656 19.2785 29.8739 18.93C30.7031 18.7611 32.3368 18.8443 32.5047 19.7648C32.7497 21.1047 30.7055 22.7784 29.3487 23.2158C28.5573 23.4712 28.5884 23.1073 28.2746 23.9494C27.9166 24.9107 27.4692 26.8381 28.0165 27.7431C28.2967 28.2066 28.6785 28.2083 29.2152 28.0622C30.7047 27.6566 32.6457 24.9262 33.5592 23.7984C34.5399 22.5875 36.3432 19.6196 38.1048 19.3641C38.9011 19.2483 39.2543 19.365 39.9261 19.6489C40.008 19.6832 39.9925 19.7762 40.1023 19.6473C40.811 17.5387 41.5672 15.4407 42.5774 13.4235C43.4107 11.7612 45.4852 8.20416 47.4015 7.40772C48.6272 6.89851 50.1889 7.14903 50.3298 8.48161C50.6247 11.2708 46.9526 15.5198 44.842 17.5436C44.3054 18.0577 43.3541 18.7015 42.9174 19.2026C42.4373 19.7542 41.6655 23.3284 41.4853 24.2154C41.2018 25.6092 40.5029 29.1622 41.219 30.3414C41.4541 30.729 41.6483 30.5739 42.017 30.3838C43.7245 29.5008 46.0824 25.9764 46.964 24.3974C48.0193 22.5067 49.1582 18.4257 52.5436 18.9137C52.9049 18.9659 53.1556 19.1863 53.4858 19.2719C54.0773 17.4555 54.8401 15.6137 55.7807 13.9082C56.4525 12.6899 58.6434 9.17278 60.2959 8.98102C62.5237 8.72152 62.2975 10.4319 61.9051 11.7114C61.2668 13.7939 59.4553 16.1384 57.8323 17.7696C57.3849 18.2193 55.6693 19.5249 55.4784 19.8187C55.0835 20.4266 54.5829 22.6731 54.392 23.4671C54.0134 25.0413 53.2277 28.3511 53.7758 29.8118C53.8954 30.1316 53.9987 30.3552 54.4305 30.1896C55.2391 29.8795 56.8982 27.5073 57.3644 26.7639C58.4943 24.9605 58.5344 23.2509 59.4406 21.401C59.7069 20.8559 60.3918 19.4972 61.0981 19.3625C62.8186 19.0337 62.3303 20.1263 62.0263 20.9848C61.4864 22.5083 59.4439 26.3518 60.2025 27.766C60.4131 28.1585 60.654 27.9512 60.9768 27.7537C62.5515 26.7884 64.9128 22.7751 65.8509 21.179C66.0189 20.8926 66.7751 19.3299 66.9816 19.2736C67.7763 19.0598 68.7775 19.4001 68.7628 20.2087C68.7324 21.7984 67.406 24.4235 66.9234 26.0809C66.8169 26.4481 66.6702 26.8675 66.6973 27.2404C68.0393 25.2094 68.8242 22.9457 70.2154 20.9326C70.7004 20.23 72.258 18.2364 73.0846 17.9785C73.7606 17.768 74.8052 17.9239 74.9052 18.6322C75.0658 19.7722 73.8581 22.3508 73.5418 23.632C73.2592 24.776 72.9863 26.0956 73.5844 27.2054C74.1842 28.3192 75.0215 27.8386 75.8867 27.2372C76.5946 26.7451 78.4708 24.661 78.8297 23.9519C79.5376 22.554 79.5794 21.4018 80.6584 19.9558C81.9251 18.2584 84.1028 16.9805 85.9471 18.9463L86.3109 19.7232C86.4575 19.2524 87.0351 17.7566 87.4546 17.5077C87.8446 17.2768 88.8655 17.4228 88.9949 17.8414C88.5763 19.6351 87.8168 21.3479 87.4669 23.1562C87.1023 25.0396 87.0892 26.9198 86.927 28.8195C90.8728 26.1429 95.2201 23.4892 97.3233 19.4205C99.7722 14.6818 99.0389 8.21395 93.4471 5.3807C90.5631 3.9192 87.4071 3.91349 84.2921 4.84131C84.5928 5.59777 84.9451 6.34117 85.0721 7.14169C85.3687 9.01039 84.3986 13.6773 81.454 13.6063C79.9505 13.5695 81.59 12.8049 81.8915 12.556C83.7521 11.0219 83.6194 7.39547 82.5715 5.51045C78.0604 7.14332 74.3349 10.6963 69.3174 11.2953C64.1295 11.9146 62.5253 7.77411 64.7932 4.33782C66.0795 2.38915 68.3621 1.28588 70.861 0.815029C75.2526 -0.012423 80.4618 0.744034 83.4785 3.77558C90.4582 2.14026 98.0533 4.79153 99.9975 11.0447C101.99 17.4522 97.7444 22.6878 92.3205 26.5615C90.8695 27.5979 88.4345 28.866 87.2334 29.9472C87.1015 30.0655 87.013 30.21 86.9065 30.3438C86.6066 34.0967 86.5673 37.8912 85.7431 41.6001C85.2056 44.018 84.0774 47.1181 81.6522 48.6204C78.8059 50.3838 75.2493 49.4511 74.9134 46.2865C74.3685 41.1545 78.5864 35.7761 82.5355 32.237C83.2098 31.6323 84.0323 31.1272 84.5772 30.4523C84.705 28.4139 84.7124 26.3453 84.995 24.3085L83.6227 26.5525C82.2872 29.194 78.8182 28.5893 78.7215 25.7373C77.368 27.3857 75.219 29.5873 72.7168 27.9479C70.7152 26.6366 71.4444 23.4288 71.9958 21.6303L72.7536 19.4229C71.5361 20.5254 70.6226 21.9077 69.886 23.2811C69.2716 24.4268 67.9713 27.9634 66.9127 28.5526C66.1057 29.0023 65.0537 28.6652 64.8497 27.8459C64.5072 26.4726 64.9587 24.9825 65.2487 23.6328L63.1111 26.6488C62.0886 27.9414 60.6122 29.4698 58.8941 27.8353L58.3173 26.79C57.7233 27.7374 57.0973 28.8594 56.3337 29.7146C55.7774 30.3381 55.1465 30.8848 54.1503 30.8506C51.8668 30.7714 51.8078 27.8451 51.9078 26.4138L50.7681 28.3307C50.0832 29.2879 48.9984 30.0394 47.8243 29.0471C47.4548 28.7346 46.9059 27.7113 46.9059 27.278V26.0376L46.9067 26.0352ZM81.8366 4.31007C79.218 0.86807 73.1903 0.646111 69.1675 2.21696C66.4482 3.27862 64.123 6.20407 65.1373 8.80475C65.4896 9.70728 66.4752 10.6906 67.6641 10.7004C70.748 10.7257 75.2935 7.35467 77.9489 5.97967C79.1894 5.33745 80.4962 4.78337 81.8374 4.31089L81.8366 4.31007ZM43.1337 18.2176C44.3447 17.1078 45.4639 15.8968 46.452 14.6336C47.6588 13.0889 49.7128 10.2442 49.3433 8.35104C49.2122 7.67945 48.882 7.67945 48.3167 8.03769C47.49 8.56158 46.461 10.2761 46.0144 11.1027C44.7846 13.377 43.9588 15.8185 43.1337 18.2184V18.2176ZM60.835 9.5098C60.1886 9.66893 58.6884 12.1358 58.3615 12.7315C57.7282 13.8845 57.1219 15.2391 56.6451 16.4485C56.4427 16.9626 55.9921 17.9753 55.9192 18.46C55.852 18.9072 56.4329 18.3041 56.6057 18.1442C58.3656 16.5089 61.0981 12.9673 61.2988 10.7379C61.3275 10.4148 61.4192 9.367 60.835 9.51062V9.5098ZM21.9806 23.1791C22.2649 21.1031 22.6803 18.7587 21.9167 16.7316C21.7668 16.3342 21.5988 15.9581 21.235 15.6626C20.7353 16.0348 20.3682 16.6827 20.1626 17.2237C19.5169 18.9284 19.7308 21.432 21.2301 22.7719C21.3375 22.8682 21.8463 23.2909 21.9806 23.1791ZM80.8927 27.5203C80.9484 27.5701 81.0828 27.6028 81.1639 27.5938C81.8554 27.5187 82.8624 25.8834 83.1991 25.3595C83.6948 24.5875 84.986 22.5769 85.2195 21.8277C85.4555 21.0705 85.4293 19.3633 84.6911 18.8174C84.3732 18.5824 84.2323 18.6664 83.9414 18.8549C82.3716 19.8734 80.5486 24.8585 80.6068 26.5199C80.6125 26.6888 80.7764 27.4167 80.8927 27.5195V27.5203ZM52.8492 19.5943C52.5198 19.369 52.2085 19.591 51.9627 19.804C50.46 21.1088 48.5453 26.5223 48.751 28.3266C48.7813 28.5959 48.8411 29.0847 49.1885 28.9288C49.9013 28.6089 51.3531 26.0066 51.6898 25.2828C52.4346 23.6818 52.5362 21.9199 53.1302 20.2748C53.2146 20.0619 53.0384 19.7224 52.8492 19.5935V19.5943ZM28.8277 22.7278C29.9657 22.483 31.7985 20.8926 31.5273 19.8505C31.3413 19.134 30.4368 19.9868 30.1926 20.252C29.9378 20.5286 28.6679 22.5573 28.8277 22.7278ZM35.7607 28.8921C35.9131 28.9255 35.936 28.8382 36.0237 28.7803C37.0175 28.1258 39.0027 23.6679 39.3829 22.4871C39.4886 22.159 39.8057 21.0182 39.7909 20.7424C39.7745 20.4364 39.405 19.7469 38.9773 19.9574C37.8459 20.5156 36.7029 22.8608 36.3285 23.9298C35.7853 25.4819 35.3723 27.2919 35.7607 28.8929V28.8921ZM81.0844 35.0123C78.3807 37.8374 75.1608 42.5801 75.7917 46.36C76.2415 49.0561 78.6003 49.8803 80.9607 47.948C84.1716 45.3187 84.2978 38.8501 84.474 35.2465C84.5272 34.1595 84.4944 33.0604 84.5575 31.9734C83.2966 32.8572 82.1209 33.9294 81.0844 35.0115V35.0123ZM61.3742 45.8679C61.4839 45.81 61.8281 44.723 61.8739 44.5304C62.0927 43.6042 62.1705 42.7287 61.8887 41.8065C61.8092 41.5462 61.7117 41.0517 61.343 41.0623C61.0718 41.0599 60.7187 42.0334 60.695 42.2431C60.6319 42.807 61.4758 43.8376 60.4688 43.9307C59.6159 44.0098 59.5897 43.4533 59.2136 42.9694C58.9736 42.6593 58.6434 42.1109 58.4467 42.7213C58.0625 43.9127 59.0661 45.2339 60.3361 45.6916C60.5524 45.7692 61.1882 45.9658 61.3742 45.8679Z" fill="#F7E7CE"/>
<path d="M62.7787 18.7318C62.5493 18.855 61.6718 18.7285 61.521 18.4421C61.3752 18.1646 61.6423 16.646 61.8742 16.4167C62.3125 15.9818 64.3124 16.1009 64.16 16.8696C64.1133 17.1054 63.208 18.0626 62.9835 18.3442C62.9114 18.4347 62.8024 18.7195 62.7787 18.7326V18.7318Z" fill="#F7E7CE"/>
<path d="M10.1087 7.67207V1.94763H12.5741V2.64615H11.0141V4.40469H12.3627V5.09423H11.0141V7.67125H10.1079L10.1087 7.67207Z" fill="#FF736C"/>
<path d="M13.0376 7.67207V1.94763H14.8991C15.8347 1.94763 16.1674 2.37033 16.1674 3.09415V3.87835C16.1674 4.40387 15.9159 4.71478 15.4833 4.80944V4.84371C15.956 4.92124 16.1879 5.19705 16.1879 5.76582V7.67125H15.3022V5.70625C15.3022 5.33578 15.1711 5.18073 14.7385 5.18073H13.9233V7.67207H13.0376ZM15.2915 3.18065C15.2915 2.82731 15.1203 2.64615 14.6975 2.64615H13.9225V4.53362H14.7074C15.0695 4.53362 15.2907 4.38755 15.2907 3.94772V3.18065H15.2915Z" fill="#FF736C"/>
<path d="M19.1466 7.6721L18.8853 6.32729H17.6571L17.4154 7.6721H16.5396L17.6768 1.94849H18.8943L20.0315 7.6721H19.1458H19.1466ZM17.7775 5.66304H18.764L18.2912 3.15457H18.2511L17.7784 5.66304H17.7775Z" fill="#FF736C"/>
<path d="M22.7698 7.67207L21.2401 3.24104H21.2C21.2205 3.66374 21.2303 4.06849 21.2303 4.44794V7.67207H20.4355V1.94763H21.6227L23.0213 6.05959H23.0615C23.041 5.51612 23.0311 5.05098 23.0311 4.67153V1.94763H23.8259V7.67125H22.769L22.7698 7.67207Z" fill="#FF736C"/>
<path d="M26.6343 5.3358H27.4897V6.293C27.4897 7.2502 26.9563 7.72431 25.9502 7.72431C24.9441 7.72431 24.3804 7.20695 24.3804 6.27586V3.32755C24.3804 2.37035 24.9137 1.89624 25.9199 1.89624C26.926 1.89624 27.4897 2.37035 27.4897 3.31858V3.99996H26.6343V3.31858C26.6343 2.87058 26.4024 2.62006 25.9502 2.62006C25.4979 2.62006 25.2759 2.8616 25.2759 3.3096V6.33543C25.2759 6.77527 25.4774 7.00784 25.9502 7.00784C26.4229 7.00784 26.6343 6.79241 26.6343 6.33543V5.3358Z" fill="#FF736C"/>
<path d="M28.0327 7.67207V1.94763H30.4481V2.64615H28.9184V4.31819H30.317V5.02487H28.9184V6.97273H30.5284V7.67125H28.0327V7.67207Z" fill="#FF736C"/>
<path d="M26.7163 13.0775H27.5717V14.0347C27.5717 14.9919 27.0383 15.466 26.0322 15.466C25.0261 15.466 24.4624 14.9486 24.4624 14.0176V11.0693C24.4624 10.1121 24.9958 9.63794 26.0019 9.63794C27.008 9.63794 27.5717 10.1121 27.5717 11.0603V11.7417H26.7163V11.0603C26.7163 10.6123 26.4845 10.3618 26.0322 10.3618C25.5799 10.3618 25.3579 10.6033 25.3579 11.0513V14.0771C25.3579 14.517 25.5595 14.7495 26.0322 14.7495C26.505 14.7495 26.7163 14.5341 26.7163 14.0771V13.0775Z" fill="#FF736C"/>
<path d="M30.3795 9.68933H31.2652V14.0167C31.2652 14.9478 30.7318 15.4652 29.6954 15.4652C28.6589 15.4652 28.1157 14.9911 28.1157 14.0339V9.68933H29.0014V14.0771C29.0014 14.5341 29.2431 14.7495 29.6855 14.7495C30.128 14.7495 30.3803 14.517 30.3803 14.0681V9.68933H30.3795Z" fill="#FF736C"/>
<path d="M31.8188 15.4129V9.68933H33.6402C34.566 9.68933 34.9085 10.112 34.9085 10.8358V11.4218C34.9085 11.9473 34.6971 12.2663 34.2342 12.361V12.3953C34.7373 12.4728 34.9994 12.7315 34.9994 13.3435V14.4296C34.9994 15.0849 34.6676 15.4121 33.7713 15.4121H31.8188V15.4129ZM34.063 10.9485C34.063 10.5608 33.922 10.3626 33.4689 10.3626H32.7045V12.0868H33.4796C33.8319 12.0868 34.063 11.9399 34.063 11.5009V10.9493V10.9485ZM34.1031 13.2929C34.1031 12.8963 33.922 12.7323 33.4689 12.7323H32.7045V14.7405H33.4993C33.922 14.7405 34.1031 14.5594 34.1031 14.1889V13.2921V13.2929Z" fill="#FF736C"/>
<path d="M37.837 15.4129L37.5757 14.0681H36.3475L36.1058 15.4129H35.23L36.3672 9.68933H37.5847L38.7219 15.4129H37.8362H37.837ZM36.4688 13.4047H37.4552L36.9825 10.8962H36.9424L36.4696 13.4047H36.4688Z" fill="#FF736C"/>
</svg>
